<svg width="28" height="12" viewBox="0 0 29 22" fill="none" xmlns="http://www.w3.org/2000/svg">
<path fill-rule="evenodd" clip-rule="evenodd" d="M28.3089 0.464475C28.5063 0.630465 28.6684 0.832994 28.786 1.06049C28.9036 1.28798 28.9744 1.53598 28.9942 1.79031C29.0141 2.04464 28.9826 2.30031 28.9017 2.54272C28.8208 2.78512 28.692 3.0095 28.5226 3.20304L12.6918 21.3221C12.5143 21.5252 12.2959 21.6902 12.0504 21.8066C11.8048 21.923 11.5374 21.9884 11.2649 21.9986C10.9923 22.0088 10.7206 21.9636 10.4667 21.8659C10.2128 21.7682 9.98225 21.6201 9.78949 21.4308L0.554848 12.3713C0.194556 12.005 -0.00466855 11.5145 8.30851e-05 11.0055C0.00483472 10.4965 0.213182 10.0097 0.580252 9.64989C0.947321 9.29012 1.44374 9.08618 1.96259 9.082C2.48145 9.07782 2.98122 9.27373 3.35426 9.62753L11.0797 17.2039L25.52 0.676727C25.8617 0.286351 26.3473 0.0449927 26.8702 0.00567959C27.3932 -0.0336335 27.9106 0.129726 28.3089 0.464475Z" fill="white"/>
</svg>
