<svg width="16" height="16" viewBox="0 0 16 16" fill="none" xmlns="http://www.w3.org/2000/svg">
<path d="M0 2.28571C0 1.67951 0.240816 1.09812 0.66947 0.66947C1.09812 0.240816 1.67951 0 2.28571 0H3.42857V4C3.42857 4.45466 3.60918 4.89069 3.93067 5.21218C4.25216 5.53367 4.6882 5.71429 5.14286 5.71429H9.71429C10.1689 5.71429 10.605 5.53367 10.9265 5.21218C11.248 4.89069 11.4286 4.45466 11.4286 4V0H11.8617C12.4679 0.000129457 13.0492 0.24103 13.4777 0.669714L15.3303 2.52229C15.759 2.95084 15.9999 3.53213 16 4.13829V13.7143C16 14.3205 15.7592 14.9019 15.3305 15.3305C14.9019 15.7592 14.3205 16 13.7143 16V9.71429C13.7143 9.25963 13.5337 8.82359 13.2122 8.5021C12.8907 8.18061 12.4547 8 12 8H4C3.54534 8 3.10931 8.18061 2.78782 8.5021C2.46633 8.82359 2.28571 9.25963 2.28571 9.71429V16C1.67951 16 1.09812 15.7592 0.66947 15.3305C0.240816 14.9019 0 14.3205 0 13.7143V2.28571ZM10.2857 0H4.57143V4C4.57143 4.15155 4.63163 4.2969 4.7388 4.40406C4.84596 4.51122 4.99131 4.57143 5.14286 4.57143H9.71429C9.86584 4.57143 10.0112 4.51122 10.1183 4.40406C10.2255 4.2969 10.2857 4.15155 10.2857 4V0ZM12.5714 9.71429V16H3.42857V9.71429C3.42857 9.56273 3.48878 9.41739 3.59594 9.31022C3.7031 9.20306 3.84845 9.14286 4 9.14286H12C12.1516 9.14286 12.2969 9.20306 12.4041 9.31022C12.5112 9.41739 12.5714 9.56273 12.5714 9.71429Z" fill="white"/>
</svg>
