<svg width="21" height="20" viewBox="0 0 21 20" fill="none" xmlns="http://www.w3.org/2000/svg">
<path d="M11.8696 1.30435C11.8696 0.958413 11.7253 0.626647 11.4684 0.382034C11.2116 0.137422 10.8632 0 10.5 0C10.1368 0 9.78841 0.137422 9.53157 0.382034C9.27473 0.626647 9.13043 0.958413 9.13043 1.30435V8.69565H1.36957C1.00633 8.69565 0.65798 8.83307 0.401136 9.07769C0.144293 9.3223 0 9.65407 0 10C0 10.3459 0.144293 10.6777 0.401136 10.9223C0.65798 11.1669 1.00633 11.3043 1.36957 11.3043H9.13043V18.6957C9.13043 19.0416 9.27473 19.3734 9.53157 19.618C9.78841 19.8626 10.1368 20 10.5 20C10.8632 20 11.2116 19.8626 11.4684 19.618C11.7253 19.3734 11.8696 19.0416 11.8696 18.6957V11.3043H19.6304C19.9937 11.3043 20.342 11.1669 20.5989 10.9223C20.8557 10.6777 21 10.3459 21 10C21 9.65407 20.8557 9.3223 20.5989 9.07769C20.342 8.83307 19.9937 8.69565 19.6304 8.69565H11.8696V1.30435Z" fill="white"/>
</svg>
