<svg width="15" height="17" viewBox="0 0 15 17" fill="none" xmlns="http://www.w3.org/2000/svg">
<path d="M7.5 0C4.04744 0 1.24839 2.8543 1.24839 6.375V9.98197L0.0797505 12.6828C0.0167994 12.8284 -0.00955279 12.9876 0.00308067 13.1462C0.0157141 13.3047 0.0669342 13.4576 0.152102 13.5908C0.237269 13.7241 0.353693 13.8336 0.490829 13.9094C0.627965 13.9852 0.781481 14.025 0.937472 14.025H14.0625C14.2185 14.025 14.372 13.9852 14.5092 13.9094C14.6463 13.8336 14.7627 13.7241 14.8479 13.5908C14.9331 13.4576 14.9843 13.3047 14.9969 13.1462C15.0096 12.9876 14.9832 12.8284 14.9202 12.6828L13.7516 9.98197V6.375C13.7516 2.8543 10.9526 0 7.5 0ZM7.5 17C6.90898 17.0001 6.33703 16.7867 5.8856 16.3977C5.43418 16.0087 5.13245 15.4693 5.03395 14.875H9.96605C9.86755 15.4693 9.56582 16.0087 9.1144 16.3977C8.66297 16.7867 8.09102 17.0001 7.5 17Z" fill="white"/>
</svg>
