<svg width="19" height="17" viewBox="0 0 19 17" fill="none" xmlns="http://www.w3.org/2000/svg">
<path d="M19 5.66667V12.75C19 12.9379 18.9285 13.118 18.8013 13.2509C18.674 13.3837 18.5014 13.4583 18.3214 13.4583H15.6071V16.2917C15.6071 16.4795 15.5357 16.6597 15.4084 16.7925C15.2811 16.9254 15.1085 17 14.9286 17H4.07143C3.89146 17 3.71886 16.9254 3.59161 16.7925C3.46435 16.6597 3.39286 16.4795 3.39286 16.2917V13.4583H0.678571C0.498603 13.4583 0.326006 13.3837 0.198749 13.2509C0.0714921 13.118 0 12.9379 0 12.75V5.66667C0 4.49526 0.963572 3.54167 2.14853 3.54167H3.39286V0.708333C3.39286 0.520472 3.46435 0.340304 3.59161 0.207466C3.71886 0.0746279 3.89146 0 4.07143 0H14.9286C15.1085 0 15.2811 0.0746279 15.4084 0.207466C15.5357 0.340304 15.6071 0.520472 15.6071 0.708333V3.54167H16.8515C18.0364 3.54167 19 4.49526 19 5.66667ZM4.75 3.54167H14.25V1.41667H4.75V3.54167ZM14.25 11.3333H4.75V15.5833H14.25V11.3333ZM15.6071 7.4375C15.6071 7.22736 15.5474 7.02193 15.4356 6.84721C15.3238 6.67248 15.1648 6.5363 14.9788 6.45588C14.7928 6.37546 14.5882 6.35442 14.3907 6.39542C14.1933 6.43641 14.0119 6.53761 13.8696 6.6862C13.7272 6.83479 13.6303 7.02411 13.591 7.23022C13.5517 7.43632 13.5719 7.64995 13.6489 7.8441C13.7259 8.03825 13.8564 8.20419 14.0238 8.32094C14.1912 8.43769 14.388 8.5 14.5893 8.5C14.8592 8.5 15.1181 8.38806 15.309 8.1888C15.4999 7.98954 15.6071 7.71929 15.6071 7.4375Z" fill="white"/>
</svg>
