<svg width="70" height="70" viewBox="0 0 70 70" fill="none" xmlns="http://www.w3.org/2000/svg">
<path fill-rule="evenodd" clip-rule="evenodd" d="M48.179 31.1145C47.6526 30.6259 46.9391 30.3515 46.1952 30.3515C45.4513 30.3515 44.7378 30.6259 44.2114 31.1145L37.7735 37.0974V8.60885C37.7735 7.91694 37.4777 7.25337 36.9512 6.76411C36.4248 6.27486 35.7108 6 34.9662 6C34.2217 6 33.5077 6.27486 32.9812 6.76411C32.4547 7.25337 32.159 7.91694 32.159 8.60885V37.0974L25.721 31.1145C25.1889 30.6537 24.485 30.4028 23.7577 30.4147C23.0305 30.4266 22.3366 30.7004 21.8222 31.1784C21.3079 31.6564 21.0133 32.3013 21.0004 32.9771C20.9876 33.653 21.2576 34.3071 21.7534 34.8017L32.9824 45.237C33.5088 45.7256 34.2223 46 34.9662 46C35.7101 46 36.4237 45.7256 36.95 45.237L48.179 34.8017C48.7047 34.3125 49 33.6494 49 32.9581C49 32.2667 48.7047 31.6036 48.179 31.1145Z" fill="white"/>
<path opacity="0.5" d="M5 36C5 43.4261 8.16071 50.548 13.7868 55.799C19.4129 61.05 27.0435 64 35 64C42.9565 64 50.5871 61.05 56.2132 55.799C61.8393 50.548 65 43.4261 65 36H5Z" fill="white"/>
</svg>
