<svg width="299" height="475" viewBox="0 0 299 475" fill="none" xmlns="http://www.w3.org/2000/svg">
<path d="M256.382 472.887L254.778 440.821C254.699 439.207 257.179 439.009 257.256 440.697L258.859 472.763C258.941 474.436 256.459 474.513 256.382 472.887Z" fill="black"/>
<path d="M120.463 396.764C115.303 395.731 110.011 394.376 106.876 390.196C106.467 389.648 106.579 388.871 107.127 388.459C107.673 388.049 108.45 388.158 108.865 388.707C111.473 392.187 116.259 393.391 120.937 394.326C132.635 396.553 147.766 398.397 160.933 392.797C161.561 392.532 162.291 392.822 162.559 393.455C162.827 394.086 162.534 394.815 161.901 395.083C148.938 400.594 134.301 399.4 120.463 396.764Z" fill="black"/>
<path d="M66.823 471.502C66.1975 471.502 65.6589 471.03 65.5919 470.395L63.9884 455.644C63.914 454.964 64.4079 454.351 65.088 454.276C65.7358 454.207 66.3812 454.693 66.4556 455.376L68.0591 470.127C68.141 470.859 67.5651 471.502 66.823 471.502Z" fill="black"/>
<path d="M235.714 292.931C236.553 294.331 237.163 296.066 237.471 297.92C237.885 300.809 238.114 298.664 228.61 355.07C229.161 355.261 229.672 355.608 230.045 356.105C230.31 356.37 230.553 356.688 230.789 357.026C240.308 300.355 240.432 301.05 239.926 297.543C239.563 295.356 238.841 293.321 237.915 291.799C228.948 271.203 222.392 250.574 218.433 230.489C218.299 229.816 217.634 229.374 216.976 229.511C216.304 229.642 215.867 230.295 215.998 230.968C219.987 251.229 226.602 272.027 235.714 292.931Z" fill="black"/>
<path d="M260.184 373.881C297.567 327.851 305.296 273.397 283.154 212.017C269.807 175.786 226.118 150.158 189.862 143.566C189.197 143.447 188.539 143.888 188.418 144.564C188.296 145.236 188.743 145.884 189.415 146.008C190.838 146.266 192.272 146.567 193.714 146.882C175.188 197.112 169.678 253.153 166.076 300.648C166.943 299.938 167.824 299.248 168.725 298.578C172.326 251.626 177.943 196.64 196.152 147.435C199.227 148.177 202.34 149.051 205.464 150.046C211.893 163.286 217.699 176.739 223.81 193.562C208.813 209.875 194.504 227.085 181.269 244.731C180.939 245.171 180.939 245.774 181.269 246.215L202.037 274.223C200.155 279.542 198.326 284.886 196.541 290.25C197.413 290.421 198.269 290.635 199.103 290.893C204.531 274.171 205.191 274.31 204.424 273.278L183.813 245.483C196.993 227.962 211.23 210.88 226.148 194.692C226.46 194.352 226.557 193.865 226.401 193.428C220.866 178.124 215.078 164.269 208.751 151.139C239.189 161.655 270.103 183.768 280.823 212.87C302.645 273.367 295.053 327.012 258.31 372.263C255.734 375.075 252.701 377.068 249.407 378.143C247.791 379.029 245.702 379.675 243.339 380.126C244.031 380.486 244.751 380.859 245.498 381.253C245.716 381.367 245.967 381.417 246.23 381.387C250.065 380.908 253.667 379.387 256.861 376.934C258.67 417.588 261.599 423.138 259.978 432.332C258.204 437.361 254.635 441.685 249.834 444.569C230.126 458.952 202.724 464.368 165.91 463.569C164.133 463.529 162.907 463.276 161.971 462.626C160.926 461.263 160.417 459.667 160.415 457.689C159.665 443.993 160.715 426.395 160.814 426.015C176.419 367.083 186.705 331.207 193.364 309.246C192.448 309.067 191.528 308.896 190.597 308.727C180.137 342.287 171.239 376.356 162.547 409.589C160.407 417.765 162.299 412.528 162.984 387.885C163.579 365.519 165.327 342.359 166.997 321.403C166.136 321.477 165.299 321.505 164.5 321.48C162.835 342.391 161.097 365.485 160.502 387.818C159.866 410.812 156.647 434.338 157.935 457.759C157.935 461.276 159.65 463.998 160.358 464.525C161.748 465.567 163.51 466.004 165.848 466.054C169.631 466.136 173.319 466.302 176.908 466.302C208.746 466.302 233.15 459.821 251.204 446.639C256.407 443.521 260.353 438.733 262.371 432.97C264.208 422.826 261.041 417.509 259.256 374.825C259.569 374.514 259.882 374.209 260.184 373.881Z" fill="black"/>
<path d="M161.653 79.5602C162.07 76.7579 160.991 74.2741 159.238 74.0128C157.486 73.7511 155.729 75.811 155.309 78.6135C154.892 81.4161 155.972 83.8999 157.724 84.1613C159.476 84.4226 161.234 82.3627 161.653 79.5602Z" fill="black"/>
<path d="M133.178 75.6453C133.544 73.1925 132.562 71.0135 130.986 70.7781C129.409 70.5428 127.834 72.3404 127.468 74.7932C127.102 77.2457 128.083 79.4247 129.66 79.66C131.237 79.8953 132.812 78.0978 133.178 75.6453Z" fill="black"/>
<path d="M135.637 105.54C134.999 105.292 134.681 104.572 134.932 103.934C135.182 103.294 135.9 102.979 136.538 103.227C141.953 105.334 147.744 105.014 152.822 102.323C153.43 102.003 154.182 102.232 154.5 102.84C154.823 103.445 154.589 104.197 153.986 104.518C148.389 107.481 141.879 107.968 135.637 105.54Z" fill="black"/>
<path d="M132.194 94.523C130.156 91.6711 131.956 88.0051 133.755 85.1283L141.154 74.1873C141.539 73.6189 142.313 73.4725 142.877 73.8547C143.445 74.2394 143.594 75.0114 143.209 75.5773L135.833 86.4811C134.579 88.4916 133.015 91.408 134.214 93.0809C135.18 94.4337 137.213 94.8953 140.422 94.4957C141.09 94.4064 141.723 94.8904 141.81 95.5729C141.894 96.253 141.412 96.8735 140.732 96.9579C137.535 97.36 134.07 97.1565 132.194 94.523Z" fill="black"/>
<path d="M126.468 69.7098C125.244 69.7098 124.76 68.1163 125.78 67.4362C128.188 65.8328 131.087 65.2892 133.546 65.9917C134.207 66.1803 134.586 66.8678 134.398 67.5256C134.209 68.1833 133.524 68.5681 132.864 68.3794C131.139 67.883 128.942 68.3124 127.158 69.5013C126.947 69.6428 126.703 69.7098 126.468 69.7098Z" fill="black"/>
<path d="M164.307 74.8398C163.989 74.8398 163.671 74.7182 163.428 74.4774C161.614 72.663 159.05 71.6901 156.749 71.9457C155.088 72.1195 154.86 69.6572 156.473 69.4785C159.516 69.1385 162.847 70.3845 165.185 72.7201C165.97 73.5045 165.404 74.8398 164.307 74.8398Z" fill="black"/>
<path d="M220.744 54.3601C220.049 46.487 217.031 38.9216 212.012 32.6891C211.675 33.2426 211.079 33.5404 210.483 33.8383C201.183 37.6855 190.922 39.6091 180.661 39.2889C160.804 40.3612 142.817 36.1938 130.958 30.3088C128.726 29.2017 127.52 28.266 126.996 27.2484C121.481 31.0385 116.442 35.7867 112.037 41.5327C109.537 44.7917 107.867 48.5868 107.547 52.7542C107.547 53.3946 107.867 54.3577 108.51 54.3577C109.892 54.3577 109.54 54.3899 114.28 51.471C110.753 55.9611 108.51 61.7319 107.867 67.5028C107.867 68.1432 107.867 68.786 108.187 69.1062C108.827 69.4264 109.15 69.4264 109.79 69.1062C111.394 68.4633 112.677 67.1826 113.638 65.5792C113.089 66.4926 111.798 83.5842 116.154 95.1085C116.033 98.4916 116.308 101.897 117.247 105.335C120.816 118.964 130.019 128.18 140.943 129.252C140.049 133.002 138.602 139.717 137.473 143.11C136.954 144.668 139.31 145.45 139.829 143.891C140.377 142.246 140.968 139.97 141.551 137.56L141.586 137.609C145.341 141.675 150.849 144.321 157.076 145.053C167.916 146.562 180.718 144.085 188.619 136.249C188.477 139.039 188.393 141.62 188.393 143.824C188.393 144.509 188.949 145.065 189.634 145.065C190.319 145.065 190.875 144.509 190.875 143.824C190.875 135.239 192.146 120.855 193.29 110.584C198.624 111.036 203.67 108.504 206.708 103.773C208.158 101.535 209.222 98.5139 209.763 95.3195C216.986 82.9413 220.744 68.652 220.744 54.3601ZM204.628 102.431C201.888 106.695 197.207 108.82 192.421 107.971C191.721 107.844 191.054 108.343 190.972 109.053C190.207 115.754 189.361 124.509 188.854 132.312C181.252 142.06 167.201 143.956 157.396 142.593C151.732 141.928 146.838 139.493 143.38 135.894C142.79 135.279 142.509 134.169 142.745 133.226C142.797 133.01 142.775 132.801 142.718 132.6C143.088 131.007 143.425 129.542 143.706 128.416C143.897 127.634 143.318 126.894 142.536 126.874C132.079 126.574 123.097 117.877 119.647 104.699C116.852 94.4408 120.362 84.5026 122.238 73.8122C122.442 72.6531 122.638 71.489 122.839 70.3224C130.985 54.1368 145.493 42.878 149.235 41.215C149.235 48.2319 159.571 49.7534 172.324 65.9068C186.588 88.7271 176.722 91.6485 182.264 97.6526C182.264 97.9728 182.585 97.9728 182.905 97.9728C183.225 97.9728 183.553 97.6601 183.868 97.3325C187.797 93.2122 187.105 86.0961 193.436 81.333C197.373 78.3718 202.687 78.6597 205.353 82.0825C209.021 86.595 208.004 97.2183 204.628 102.431Z" fill="black"/>
<path d="M214.604 308.225C213.931 299.789 208.237 292.412 199.927 289.816C186.616 285.658 174.947 291.526 164.312 300.548C162.711 299.555 160.482 302.38 118.947 294.162C114.774 293.335 110.565 292.514 106.335 291.742C109.885 200.709 130.749 151.189 131.521 145.925C133.874 145.716 136.267 145.528 138.731 145.381C140.375 145.282 140.223 142.775 138.58 142.904C132.181 143.289 126.162 143.874 120.456 144.654C120.25 144.627 120.044 144.666 119.848 144.743C66.2521 152.232 39.7931 178.47 18.2288 227.665C1.56656 266.147 -3.59619 298.592 2.42535 326.764C3.1253 332.014 5.20032 337.085 8.50398 340.897C11.1921 344 15.1237 346.32 19.8297 348.256C30.6541 352.712 41.3072 355.574 52.0174 356.569C51.3298 387.781 52.422 419.16 55.3285 450.488C55.3533 450.749 55.46 450.995 55.6313 451.191C63.4523 460.131 115.502 465.247 115.201 459.608C112.93 416.313 108.644 404.029 106.467 349.711C128.13 343.017 148.779 332.798 167.424 323.54C167.816 323.344 168.062 322.952 168.094 322.517C176.355 321.542 185.784 316.719 189.11 309.712C194.245 310.628 198.934 311.541 203.61 312.998C208.058 314.781 211.079 311.574 209.548 308.464C210.736 308.863 211.903 309.216 213.055 309.519C213.884 309.734 214.675 309.069 214.604 308.225ZM112.677 458.833C104.307 461.268 64.7579 456.763 57.7634 449.838C54.8966 418.785 53.8194 387.682 54.497 356.745C64.5246 357.448 74.9469 356.949 87.8413 354.437C93.9274 378.684 101.317 403.12 110.024 425.179C111.17 436.36 112.074 447.661 112.677 458.833ZM109.018 415.593C101.791 396.034 95.5482 374.941 90.2837 353.978C94.9003 353.002 99.4823 351.823 104.02 350.483C104.871 371.322 106.544 392.996 109.018 415.593ZM20.7754 345.965C16.3821 344.156 12.7781 342.044 10.3804 339.274C7.40937 335.846 5.52547 331.229 4.8702 326.342C-1.05949 298.597 4.05857 266.643 20.5049 228.657C40.8381 182.262 65.515 156.091 115.809 147.861C103.945 157.33 90.4599 168.757 78.181 179.778C77.8037 180.118 77.6697 180.656 77.8459 181.133C83.582 196.629 87.4764 216.297 95.8137 231.219C97.0176 231.418 98.1941 231.775 99.2887 232.242C90.3556 217.669 86.3371 197.232 80.4621 181.066C93.7189 169.194 108.326 156.881 120.719 147.128C123.365 146.766 126.085 146.451 128.875 146.173C114.216 190.736 105.953 238.355 103.861 291.303C94.8408 289.714 85.7241 288.438 76.595 288.068C74.9692 278.227 73.6041 268.899 72.5417 260.396C72.4871 259.954 72.1272 259.753 72.4102 258.638C73.8845 257.147 73.4229 257.444 81.0081 251.763C80.7078 251.068 80.5465 250.338 80.5489 249.586C80.5489 249.38 80.5613 249.179 80.5862 248.978C72.2985 255.198 70.4195 256.722 70.1316 257.591C69.737 258.782 69.727 259.966 70.0994 260.885C71.1443 269.229 72.4747 278.358 74.0608 287.989C71.0674 287.924 68.074 287.927 65.0831 288.093C63.6013 266.425 67.4981 240.46 76.662 210.891C77.151 209.322 74.7756 208.585 74.2916 210.156C64.8597 240.579 60.9603 267.276 62.6978 289.503C62.7499 290.178 63.3431 290.699 64.0158 290.645C96.191 288.49 128.679 301.511 161.134 302.76C156.577 309.95 158.61 317.943 164.364 322.291C122.526 343.051 71.3776 366.798 20.7754 345.965ZM205.653 304.314C202.91 302.038 199.694 300.399 196.05 299.429C194.662 299.059 193.863 300.97 195.099 301.697C204.665 307.327 203.526 304.989 207.038 309.203C207.175 309.34 207.602 309.834 207.405 310.427C207.115 311.149 205.658 311.152 204.439 310.668C199.247 309.044 193.97 308.054 188.571 307.101C187.976 306.997 187.41 307.324 187.196 307.878C184.491 314.915 174.088 319.938 165.821 320.226C161.273 316.727 159.767 310.717 162.415 305.614C167.181 301.082 172.008 297.431 177.082 294.661C190.681 287.244 209.061 291.012 211.891 306.614C209.87 305.999 207.79 305.232 205.653 304.314Z" fill="black"/>
<path d="M292.921 247.442L214.973 245.838C210.029 245.838 205.437 248.626 203.275 252.947C185.499 289.138 169.948 327.253 157.061 366.222C156.582 367.254 156.697 368.255 157.327 368.922C157.622 371.871 159.973 374.023 163.051 374.023L207.458 373.149C221.268 372.876 220.953 372.891 221.273 372.876C226.262 372.653 231.241 371.871 236.138 370.858C232.291 368.294 229.084 365.087 226.518 361.24C222.382 355.038 228.094 353.506 230.045 356.11C231.008 357.073 231.648 358.676 232.931 359.637C237.101 363.484 246.481 362.456 250.246 367.334L250.288 367.391C270.805 324.642 284.879 283.702 298.17 255.66C299.818 252.185 297.222 247.442 292.921 247.442Z" fill="black"/>
<path d="M213.519 380.012C210.816 379 208.289 376.617 206.805 373.656C206.39 372.832 206.993 371.839 207.959 371.859C216.706 372.164 225.145 371.595 233.09 370.176C230.141 367.845 227.587 365.078 225.483 361.923C220.379 354.263 228.208 351.587 231.037 355.358C231.914 356.194 232.601 357.832 233.673 358.637C233.708 358.661 233.74 358.689 233.77 358.716C237.647 362.295 247.005 361.287 251.214 366.549C255.133 371.806 254.161 375.177 252.656 377.083C246.707 384.629 219.602 382.618 213.519 380.012ZM210.183 374.4C211.352 375.929 212.856 377.113 214.445 377.709C219.796 380.002 245.707 381.889 250.705 375.549C251.229 374.884 252.823 372.864 249.248 368.068C247.459 365.835 243.981 364.966 240.616 364.124C235.671 362.888 232.695 362.062 230.104 358.225C229.779 357.745 229.474 357.294 229.163 356.981C228.491 356.107 227.339 355.916 226.617 356.455C225.818 357.095 226.5 358.977 227.545 360.545C230.007 364.239 233.13 367.359 236.821 369.821C237.737 370.431 237.461 371.846 236.384 372.07C228.133 373.777 219.327 374.559 210.183 374.4Z" fill="black"/>
<path d="M193.171 135.505C191.396 135.326 189.835 136.607 189.656 138.369C189.477 140.131 190.758 141.705 192.52 141.884C241.626 146.883 226.651 230.745 176.724 226.885C161.934 225.808 146.723 214.063 147.944 196.961C147.966 196.641 147.892 196.343 147.825 196.045C149.697 193.935 154.438 189.232 163.264 181.14C164.57 179.944 164.659 177.914 163.46 176.608C162.264 175.302 160.236 175.216 158.93 176.409C153.964 180.964 148.061 186.484 144.521 190.175C141.034 185.479 138.492 179.996 136.949 173.828C136.519 172.11 134.782 171.068 133.062 171.495C131.344 171.924 130.299 173.667 130.731 175.384C132.781 183.585 136.425 190.736 141.54 196.678C140.299 215.542 156.299 233.43 180.142 233.43C235.185 233.43 249.454 141.236 193.171 135.505Z" fill="black"/>
<path d="M134.487 178.414C133.975 178.414 133.496 178.094 133.315 177.583C126.675 158.662 123.632 139.416 124.265 120.373C124.325 118.745 126.8 118.807 126.747 120.455C126.122 139.187 129.118 158.131 135.656 176.761C135.939 177.568 135.34 178.414 134.487 178.414Z" fill="black"/>
<path d="M202.404 99.8391C202.404 99.8093 202.419 99.787 202.419 99.7572C202.809 98.1587 201.486 96.8432 200.587 95.9745C199.82 95.4632 198.944 94.319 198.212 93.8871C197.837 93.5098 197.209 92.8818 196.052 92.8818C195.213 92.8818 192.997 94.5597 192.307 96.6174C191.791 98.1712 192.012 99.5338 192.93 100.45C193.359 100.882 194.129 101.326 194.801 101.433C196.876 102.205 199.614 103.555 201.314 102.177C205.522 105.627 207.793 110.788 207.331 116.325C205.338 122.577 202.409 128.115 198.592 132.809C186.769 148.148 173.828 161.71 160.482 177.002C160.03 177.518 160.085 178.303 160.601 178.754C161.12 179.206 161.901 179.154 162.353 178.635C175.459 163.606 188.614 149.826 200.54 134.352C204.558 129.408 207.651 123.553 209.739 116.948C209.766 116.864 209.786 116.777 209.791 116.687C210.396 110.04 207.606 103.823 202.404 99.8391Z" fill="black"/>
<path d="M93.1149 230.404C91.4991 230.404 90.1067 229.183 89.9329 227.54C88.0192 209.711 88.5678 191.406 91.5587 173.13C93.2713 163.537 95.3066 154.338 101.385 146.798C103.262 143.727 106.742 141.903 110.755 141.903C112.527 141.903 113.962 143.338 113.962 145.11C113.962 146.882 112.527 148.317 110.755 148.317C107.546 148.317 106.764 150.349 106.503 150.667C101.281 157.051 99.4443 165.446 97.8781 174.212C94.9889 191.875 94.4553 209.602 96.3044 226.857C96.5079 228.746 95.0336 230.404 93.1149 230.404Z" fill="black"/>
<path d="M108.539 248.134C108.373 245.635 106.782 243.418 104.292 241.787C103.597 239.603 103.493 236.632 103.498 234.341C103.51 229.744 97.995 227.305 93.2592 227.305C88.5506 227.305 83.0702 229.757 83.0603 234.292C83.0578 235.319 83.8297 237.523 83.2688 241.611C83.239 241.715 83.1893 241.82 83.1571 241.924C80.675 243.627 79.1609 245.933 79.1535 248.521C79.1361 255.826 86.7933 259.187 93.9963 259.197C101.388 259.207 110.162 255.099 108.539 248.134ZM85.7211 235.585C86.3391 233.311 90.7423 232.286 93.7605 232.286C96.1706 232.286 98.2755 233.085 99.5165 233.701C102.063 235.294 100.735 237.057 101.398 240.335C96.3618 238.394 90.3204 238.605 85.8154 240.489C85.942 238.859 85.9544 237.29 85.7211 235.585ZM94.0013 256.712C87.3766 256.695 81.7845 253.433 81.7919 249.586C81.8019 245.739 87.4784 242.49 94.0385 242.52C100.666 242.535 106.255 245.798 106.248 249.646C106.238 253.493 100.723 256.677 94.0013 256.712Z" fill="black"/>
<path d="M213.271 30.2663C211.829 25.5752 210.533 21.7925 209.101 18.0743C207.477 12.8793 203.598 8.62499 198.06 6.04859C181.383 0.275261 163.326 -1.41007 145.837 1.18619C134.829 2.90627 131.046 10.3947 127.559 19.2781C125.144 25.4685 123.491 27.9927 130.433 31.4354C145.271 38.7948 163.574 41.4456 180.676 40.5322C190.969 40.84 201.429 38.9288 211.042 34.9475C211.776 34.5802 212.69 34.121 213.194 33.1158C213.693 32.1229 213.695 31.0656 213.271 30.2663ZM210.009 32.6913C200.783 36.5063 190.632 38.3554 180.701 38.0477H180.594C160.822 39.1199 143.722 35.2553 131.535 29.209C127.078 26.9974 127.398 26.2379 129.135 22.0035C133.069 12.4201 135.527 5.30644 146.209 3.63848C163.388 1.09187 181.038 2.77968 197.13 8.34451C201.91 10.5734 205.321 14.2916 206.758 18.8909C208.197 22.629 209.476 26.362 210.977 31.1872C211.357 31.9492 210.744 32.3165 210.009 32.6913Z" fill="black"/>
<path d="M157.893 14.9166C157.893 16.2594 157.573 15.7109 157.573 18.1234V18.7638C157.893 19.4042 158.856 19.4042 159.176 19.4042C161.683 19.7616 161.303 19.7244 161.743 19.7244C161.956 19.9378 162.063 20.1513 162.063 20.3648C162.063 21.3278 161.743 22.2884 161.743 23.2514C161.743 23.8918 161.743 25.175 161.102 25.4952C158.369 25.4952 157.794 24.8549 156.935 24.8549C156.615 24.8549 156.615 25.175 156.615 25.4952L155.974 29.0223C155.974 29.2357 155.867 29.4492 155.654 29.6627C155.334 30.303 153.73 29.9828 153.088 29.9828C152.124 29.9828 150.844 29.6627 149.881 29.3425C149.56 29.0223 149.56 28.3794 149.56 28.0592C150.308 23.5716 150.519 23.5691 149.56 23.5691L146.673 22.9288C145.39 22.6086 146.033 20.685 146.353 19.7219C146.673 18.7589 146.673 16.8352 148.277 17.1554C149.24 17.4756 150.521 17.4756 151.484 17.7958H151.804C152.124 16.8328 152.124 15.8722 152.445 14.9091C152.445 14.589 152.445 14.2688 152.765 14.2688C153.405 13.9486 154.368 14.2688 155.009 14.2688C155.649 14.2688 156.932 14.589 157.575 14.589C157.575 14.589 157.893 14.5964 157.893 14.9166Z" fill="black"/>
</svg>
