<svg width="11" height="18" viewBox="0 0 11 18" fill="none" xmlns="http://www.w3.org/2000/svg">
<path d="M0.464059 10.0654L8.3082 17.5592C8.45448 17.699 8.62813 17.8098 8.81925 17.8854C9.01037 17.9611 9.21521 18 9.42207 18C9.83986 18 10.2405 17.8414 10.5359 17.5592C10.6822 17.4195 10.7983 17.2536 10.8774 17.071C10.9566 16.8884 10.9973 16.6927 10.9973 16.4951C10.9973 16.096 10.8314 15.7132 10.5359 15.431L3.78998 9.00128L10.5359 2.57158C10.683 2.43225 10.7997 2.26648 10.8793 2.08385C10.959 1.90121 11 1.70531 11 1.50745C11 1.3096 10.959 1.1137 10.8793 0.931065C10.7997 0.748426 10.683 0.582663 10.5359 0.443333C10.3901 0.302856 10.2166 0.191355 10.0254 0.115263C9.83423 0.0391731 9.62918 0 9.42207 0C9.21497 0 9.00991 0.0391731 8.81874 0.115263C8.62756 0.191355 8.45405 0.302856 8.3082 0.443333L0.464059 7.93715C0.317015 8.07648 0.2003 8.24225 0.120653 8.42489C0.0410051 8.60753 0 8.80342 0 9.00128C0 9.19913 0.0410051 9.39503 0.120653 9.57767C0.2003 9.76031 0.317015 9.92607 0.464059 10.0654Z" fill="white"/>
</svg>
