<svg width="29.54" height="32" viewBox="0 0 24 26" fill="none" xmlns="http://www.w3.org/2000/svg">
<path d="M12 0C9.9 0 8.643 0.32 7.844 0.719C7.444 0.919 7.16 1.129 6.969 1.344C6.83785 1.50376 6.73227 1.68289 6.656 1.875C6.62464 1.95531 6.6038 2.03934 6.594 2.125L6.062 8.969C6.055 9.011 6.069 9.079 6.062 9.125L6 9.813C5.99418 9.8752 5.99418 9.9378 6 10C6 13.3 8.7 16 12 16C15.3 16 18 13.3 18 10V9.844C18.0002 9.83367 18.0002 9.82333 18 9.813L17.406 2.125C17.3962 2.03934 17.3754 1.95531 17.344 1.875C17.344 1.875 17.223 1.559 17.031 1.344C16.84 1.128 16.556 0.918 16.156 0.719C15.357 0.319 14.1 0 12 0ZM12 16C5.4 16 0 19.106 0 21.906V26H24V21.906C24 19.246 19.118 16.316 12.969 16.031C12.6464 16.0097 12.3233 15.9994 12 16ZM12 2C13.9 2 14.849 2.3 15.25 2.5C15.384 2.567 15.4 2.593 15.438 2.625L15.844 7.75C14.924 7.806 13.67 8 12 8C10.33 8 9.077 7.806 8.156 7.75L8.562 2.625C8.599 2.593 8.616 2.567 8.75 2.5C9.151 2.3 10.1 2 12 2ZM11.187 3V4.188H10V5.813H11.188V7H12.812V5.812H14V4.188H12.812V3H11.187ZM9 18.25L11.563 24H2V21.906C2 21.161 4.55 18.979 9 18.25ZM15 18.25C19.45 18.98 22 21.161 22 21.906V24H12.437L15 18.25Z" fill="white"/>
</svg>
