<svg width="35" height="35" viewBox="0 0 35 35" fill="none" xmlns="http://www.w3.org/2000/svg">
<g clip-path="url(#clip0_62_2)">
<path fill-rule="evenodd" clip-rule="evenodd" d="M15.3125 2.9165C13.3359 2.91667 11.3879 3.38954 9.63121 4.29564C7.87449 5.20175 6.35993 6.51482 5.21389 8.12531C4.06785 9.7358 3.32356 11.597 3.04312 13.5537C2.76268 15.5103 2.95422 17.5056 3.60176 19.3732C4.24931 21.2407 5.33407 22.9264 6.76556 24.2894C8.19704 25.6525 9.93374 26.6535 11.8308 27.2088C13.7278 27.7642 15.7301 27.8579 17.6707 27.482C19.6112 27.1061 21.4338 26.2717 22.9863 25.0482L28.3121 30.374C28.5871 30.6397 28.9555 30.7866 29.3379 30.7833C29.7203 30.78 30.086 30.6266 30.3564 30.3562C30.6268 30.0859 30.7802 29.7201 30.7835 29.3377C30.7868 28.9553 30.6398 28.587 30.3742 28.3119L25.0483 22.9861C26.4892 21.1582 27.3863 18.9617 27.637 16.6478C27.8878 14.3339 27.482 11.9961 26.4662 9.90206C25.4503 7.808 23.8655 6.04223 21.8929 4.80684C19.9204 3.57145 17.64 2.91635 15.3125 2.9165ZM5.83334 15.3123C5.83334 12.7983 6.83203 10.3872 8.60972 8.60955C10.3874 6.83187 12.7985 5.83317 15.3125 5.83317C17.8265 5.83317 20.2376 6.83187 22.0153 8.60955C23.793 10.3872 24.7917 12.7983 24.7917 15.3123C24.7917 17.8264 23.793 20.2374 22.0153 22.0151C20.2376 23.7928 17.8265 24.7915 15.3125 24.7915C12.7985 24.7915 10.3874 23.7928 8.60972 22.0151C6.83203 20.2374 5.83334 17.8264 5.83334 15.3123Z" fill="#7C7C7C"/>
</g>
<defs>
<clipPath id="clip0_62_2">
<rect width="35" height="35" fill="white"/>
</clipPath>
</defs>
</svg>
