<svg width="23" height="28" viewBox="0 0 23 28" fill="none" xmlns="http://www.w3.org/2000/svg">
<path d="M2.875 28C2.08437 28 1.40779 27.7391 0.84525 27.2173C0.282708 26.6956 0.000958333 26.0676 0 25.3333V12C0 11.2667 0.28175 10.6391 0.84525 10.1173C1.40875 9.59556 2.08533 9.33422 2.875 9.33333H4.3125V6.66667C4.3125 4.82222 5.01352 3.25022 6.41556 1.95067C7.8176 0.651112 9.51242 0.000889799 11.5 9.10125e-07C13.4876 -0.000887979 15.1829 0.649334 16.5859 1.95067C17.9889 3.252 18.6894 4.824 18.6875 6.66667V9.33333H20.125C20.9156 9.33333 21.5927 9.59467 22.1562 10.1173C22.7197 10.64 23.001 11.2676 23 12V25.3333C23 26.0667 22.7187 26.6947 22.1562 27.2173C21.5936 27.74 20.9166 28.0009 20.125 28H2.875ZM11.5 21.3333C12.2906 21.3333 12.9677 21.0724 13.5312 20.5507C14.0947 20.0289 14.376 19.4009 14.375 18.6667C14.374 17.9324 14.0928 17.3049 13.5312 16.784C12.9696 16.2631 12.2925 16.0018 11.5 16C10.7075 15.9982 10.0309 16.2596 9.47025 16.784C8.90962 17.3084 8.62787 17.936 8.625 18.6667C8.62212 19.3973 8.90387 20.0253 9.47025 20.5507C10.0366 21.076 10.7132 21.3369 11.5 21.3333ZM7.1875 9.33333H15.8125V6.66667C15.8125 5.55556 15.3932 4.61111 14.5547 3.83333C13.7161 3.05556 12.6979 2.66667 11.5 2.66667C10.3021 2.66667 9.28385 3.05556 8.44531 3.83333C7.60677 4.61111 7.1875 5.55556 7.1875 6.66667V9.33333Z" fill="white"/>
</svg>
