<svg width="27" height="26" viewBox="0 0 27 26" fill="none" xmlns="http://www.w3.org/2000/svg">
<path d="M16.8783 3.25C16.8783 2.38805 16.5226 1.5614 15.8896 0.951903C15.2565 0.34241 14.3979 0 13.5026 0C12.6074 0 11.7487 0.34241 11.1157 0.951903C10.4826 1.5614 10.127 2.38805 10.127 3.25C10.127 4.11195 10.4826 4.9386 11.1157 5.5481C11.7487 6.15759 12.6074 6.5 13.5026 6.5C14.3979 6.5 15.2565 6.15759 15.8896 5.5481C16.5226 4.9386 16.8783 4.11195 16.8783 3.25ZM11.8148 8.125C9.95292 8.125 8.43915 9.58242 8.43915 11.375V13.8125C8.43915 14.7113 9.1934 15.4375 10.127 15.4375H10.2219L10.8074 20.4902C10.9023 21.3129 11.6249 21.9375 12.4847 21.9375H14.5259C15.3856 21.9375 16.1082 21.3129 16.2032 20.4902L16.7834 15.4375H16.8783C17.8119 15.4375 18.5661 14.7113 18.5661 13.8125V11.375C18.5661 9.58242 17.0524 8.125 15.1905 8.125H11.8148ZM6.97812 20.018C7.6638 19.8961 8.12268 19.2613 7.99609 18.6012C7.86951 17.941 7.2102 17.4992 6.52452 17.6211C4.81559 17.9207 3.31237 18.3422 2.19945 18.8805C1.64563 19.1496 1.12874 19.4746 0.733151 19.8758C0.337566 20.2871 0 20.8457 0 21.5312C0 22.618 0.817542 23.3645 1.53487 23.8164C2.31022 24.3039 3.34401 24.6949 4.50967 25.0047C6.86736 25.6293 10.0426 26 13.5026 26C16.9627 26 20.1379 25.6293 22.4903 25.0047C23.656 24.6949 24.6951 24.3039 25.4651 23.8164C26.1877 23.3645 27 22.618 27 21.5312C27 20.8457 26.6624 20.2871 26.2616 19.8758C25.866 19.4746 25.3491 19.1496 24.7953 18.8805C23.6876 18.3422 22.1844 17.9207 20.4702 17.6211C19.7845 17.4992 19.1252 17.941 18.9986 18.6012C18.872 19.2613 19.3309 19.8961 20.0166 20.018C21.6095 20.2973 22.849 20.668 23.656 21.059C23.8248 21.1402 23.9619 21.2164 24.0727 21.2875C24.2626 21.4094 24.2626 21.6531 24.0727 21.775C23.6085 22.0645 22.8543 22.3742 21.8046 22.6535C19.7423 23.207 16.7992 23.5625 13.5026 23.5625C10.2061 23.5625 7.26294 23.207 5.1848 22.6535C4.13518 22.3742 3.38093 22.0645 2.91678 21.775C2.7269 21.6531 2.7269 21.4094 2.91678 21.2875C3.02754 21.2164 3.16996 21.1402 3.33346 21.059C4.14046 20.668 5.37996 20.3023 6.97285 20.018H6.97812Z" fill="white"/>
</svg>
