<svg width="1391" height="1353" viewBox="0 0 1391 1353" fill="none" xmlns="http://www.w3.org/2000/svg">
<g clip-path="url(#clip0_269_44)">
<path d="M1391 0H0V1353H1391V0Z" fill="#BADEFD"/>
<path d="M696.863 1253.77C1003.65 1253.77 1252.35 1244.87 1252.35 1233.88C1252.35 1222.9 1003.65 1213.99 696.863 1213.99C390.079 1213.99 141.381 1222.9 141.381 1233.88C141.381 1244.87 390.079 1253.77 696.863 1253.77Z" fill="#9BC4ED"/>
<path d="M437.581 758.086L403.891 1237.29H202.057L168.367 758.086H437.581Z" fill="#9BC4ED"/>
<path d="M435.355 789.989L171.65 804.791L169.758 777.894H436.19L435.355 789.989Z" fill="#7FAFE1"/>
<path d="M447.652 748.155H158.324C154.959 748.155 152.231 750.808 152.231 754.081V771.968C152.231 775.24 154.959 777.894 158.324 777.894H447.652C451.017 777.894 453.744 775.24 453.744 771.968V754.081C453.744 750.808 451.017 748.155 447.652 748.155Z" fill="#9BC4ED"/>
<path d="M407.424 832.474L400.803 945.936H205.145L198.524 832.474H407.424Z" fill="#7FAFE1"/>
<path d="M312.753 893.9C312.753 899.15 308.385 903.398 302.988 903.398C297.591 903.398 293.223 899.15 293.223 893.9C293.223 888.65 297.591 884.402 302.988 884.402C308.385 884.402 312.753 888.65 312.753 893.9Z" fill="#9BC4ED"/>
<path d="M398.216 972.509L392.179 1075.93H213.769L207.732 972.509H398.216Z" fill="#7FAFE1"/>
<path d="M302.988 1037.48C308.381 1037.48 312.753 1033.23 312.753 1027.98C312.753 1022.74 308.381 1018.48 302.988 1018.48C297.595 1018.48 293.223 1022.74 293.223 1027.98C293.223 1033.23 297.595 1037.48 302.988 1037.48Z" fill="#9BC4ED"/>
<path d="M390.287 1102.07L384.751 1196.86H221.225L215.689 1102.07H390.287Z" fill="#7FAFE1"/>
<path d="M312.753 1149.48C312.753 1154.73 308.385 1158.98 302.988 1158.98C297.591 1158.98 293.223 1154.73 293.223 1149.48C293.223 1144.23 297.591 1139.98 302.988 1139.98C308.385 1139.98 312.753 1144.23 312.753 1149.48Z" fill="#9BC4ED"/>
<path d="M570.644 478.204V188.148C570.644 183.602 566.86 179.949 562.214 179.949H407.118V484.049H564.663C567.973 484.049 570.672 481.424 570.672 478.204H570.644Z" fill="#9BC4ED"/>
<path d="M229.877 478.204V188.148C229.877 183.602 233.66 179.949 238.306 179.949H393.403V484.049H235.858C232.547 484.049 229.849 481.424 229.849 478.204H229.877Z" fill="#9BC4ED"/>
<path d="M477.475 229.09V280.288L496.865 280.585L477.475 229.09Z" fill="#7FAFE1"/>
<path d="M477.697 228.062H533.309C533.309 228.062 533.949 273.441 542.907 280.585H487.295C487.295 280.585 475.778 263.483 477.697 228.062Z" fill="white"/>
<path d="M526.744 242.701H489.966V244.46H526.744V242.701Z" fill="#9BC4ED"/>
<path d="M526.744 251.712H489.966V253.471H526.744V251.712Z" fill="#9BC4ED"/>
<path d="M526.744 260.723H489.966V262.482H526.744V260.723Z" fill="#9BC4ED"/>
<path d="M438.304 363.064V414.289L457.695 414.559L438.304 363.064Z" fill="#7FAFE1"/>
<path d="M438.527 362.036H494.139C494.139 362.036 494.779 407.415 503.737 414.559H448.125C448.125 414.559 436.607 397.457 438.527 362.036Z" fill="white"/>
<path d="M487.546 376.675H450.768V378.434H487.546V376.675Z" fill="#9BC4ED"/>
<path d="M487.546 385.686H450.768V387.445H487.546V385.686Z" fill="#9BC4ED"/>
<path d="M487.546 394.697H450.768V396.456H487.546V394.697Z" fill="#9BC4ED"/>
<path d="M292.249 294.846V346.07L311.64 346.341L292.249 294.846Z" fill="#7FAFE1"/>
<path d="M292.472 293.817H348.084C348.084 293.817 348.724 339.197 357.682 346.341H302.07C302.07 346.341 290.552 329.239 292.472 293.817Z" fill="white"/>
<path d="M341.518 308.457H304.74V310.216H341.518V308.457Z" fill="#9BC4ED"/>
<path d="M341.518 317.468H304.74V319.227H341.518V317.468Z" fill="#9BC4ED"/>
<path d="M341.518 326.479H304.74V328.238H341.518V326.479Z" fill="#9BC4ED"/>
<path d="M1047.03 181.248H628.398C624.865 181.248 622 184.034 622 187.472V528.265C622 531.703 624.865 534.489 628.398 534.489H1047.03C1050.57 534.489 1053.43 531.703 1053.43 528.265V187.472C1053.43 184.034 1050.57 181.248 1047.03 181.248Z" fill="#9BC4ED"/>
<path d="M1038.13 193.641H637.301C635.887 193.641 634.741 194.756 634.741 196.131V519.606C634.741 520.981 635.887 522.096 637.301 522.096H1038.13C1039.54 522.096 1040.69 520.981 1040.69 519.606V196.131C1040.69 194.756 1039.54 193.641 1038.13 193.641Z" fill="#BADEFD"/>
<path d="M841.806 188.256H833.626V522.068H841.806V188.256Z" fill="#9BC4ED"/>
<path d="M627.258 254.174V262.13H1040.69V254.174L627.258 254.174Z" fill="#9BC4ED"/>
<path d="M1176.98 326.912C1139.98 326.912 1109.88 297.633 1109.88 261.643C1109.88 225.653 1139.98 196.375 1176.98 196.375C1213.98 196.375 1244.08 225.653 1244.08 261.643C1244.08 297.633 1213.98 326.912 1176.98 326.912Z" fill="#9BC4ED"/>
<path d="M1229.66 268.966C1233.8 240.707 1213.61 214.534 1184.55 210.507C1155.5 206.48 1128.59 226.124 1124.45 254.383C1120.31 282.642 1140.51 308.815 1169.56 312.842C1198.61 316.869 1225.52 297.225 1229.66 268.966Z" fill="white"/>
<path d="M1177.12 213.639H1176.87C1176.24 213.639 1175.73 214.135 1175.73 214.748V222.244C1175.73 222.856 1176.24 223.353 1176.87 223.353H1177.12C1177.75 223.353 1178.26 222.856 1178.26 222.244V214.748C1178.26 214.135 1177.75 213.639 1177.12 213.639Z" fill="#9BC4ED"/>
<path d="M1142.18 227.577L1142.01 227.749C1141.56 228.182 1141.56 228.885 1142.01 229.318L1147.45 234.622C1147.9 235.056 1148.62 235.056 1149.06 234.623L1149.24 234.451C1149.69 234.018 1149.69 233.316 1149.24 232.882L1143.8 227.578C1143.35 227.145 1142.63 227.144 1142.18 227.577Z" fill="#9BC4ED"/>
<path d="M1127.63 261.508V261.751C1127.63 262.364 1128.14 262.861 1128.77 262.861H1136.47C1137.1 262.861 1137.62 262.364 1137.62 261.751V261.508C1137.62 260.895 1137.1 260.398 1136.47 260.398H1128.77C1128.14 260.398 1127.63 260.895 1127.63 261.508Z" fill="#9BC4ED"/>
<path d="M1142.04 295.457L1142.22 295.63C1142.66 296.063 1143.39 296.064 1143.83 295.631L1149.29 290.336C1149.73 289.903 1149.73 289.2 1149.29 288.767L1149.11 288.594C1148.67 288.161 1147.94 288.16 1147.5 288.593L1142.04 293.888C1141.6 294.321 1141.6 295.024 1142.04 295.457Z" fill="#9BC4ED"/>
<path d="M1176.87 309.648H1177.12C1177.75 309.648 1178.26 309.151 1178.26 308.538V301.043C1178.26 300.43 1177.75 299.933 1177.12 299.933H1176.87C1176.24 299.933 1175.73 300.43 1175.73 301.043V308.538C1175.73 309.151 1176.24 309.648 1176.87 309.648Z" fill="#9BC4ED"/>
<path d="M1211.84 295.73L1212.02 295.557C1212.46 295.124 1212.46 294.421 1212.01 293.989L1206.56 288.694C1206.11 288.261 1205.39 288.262 1204.95 288.695L1204.77 288.868C1204.32 289.302 1204.32 290.004 1204.77 290.437L1210.23 295.732C1210.67 296.164 1211.39 296.164 1211.84 295.73Z" fill="#9BC4ED"/>
<path d="M1226.36 261.751V261.508C1226.36 260.895 1225.85 260.398 1225.22 260.398H1217.51C1216.88 260.398 1216.37 260.895 1216.37 261.508V261.751C1216.37 262.364 1216.88 262.861 1217.51 262.861H1225.22C1225.85 262.861 1226.36 262.364 1226.36 261.751Z" fill="#9BC4ED"/>
<path d="M1204.73 232.869L1210.13 227.601C1210.58 227.161 1211.33 227.16 1211.78 227.599L1211.92 227.733C1212.38 228.173 1212.38 228.9 1211.92 229.341L1206.52 234.608C1206.07 235.049 1205.32 235.049 1204.87 234.61L1204.73 234.476C1204.28 234.036 1204.28 233.309 1204.73 232.869Z" fill="#9BC4ED"/>
<path d="M1204.94 262.482C1204.94 262.482 1204.72 262.644 1204.55 262.644L1177.26 262.347C1176.98 262.347 1176.73 262.103 1176.73 261.833V232.256C1176.73 231.958 1176.98 231.742 1177.26 231.742C1177.54 231.742 1177.79 231.985 1177.79 232.256V261.319L1204.55 261.616C1204.86 261.616 1205.08 261.86 1205.08 262.13C1205.08 262.266 1205.02 262.401 1204.91 262.482H1204.94Z" fill="#53647C"/>
<path d="M1246.36 358.112H1102.28C1094.48 358.112 1088.15 364.267 1088.15 371.859V521.365C1088.15 528.957 1094.48 535.112 1102.28 535.112H1246.36C1254.17 535.112 1260.5 528.957 1260.5 521.365V371.859C1260.5 364.267 1254.17 358.112 1246.36 358.112Z" fill="#7FAFE1"/>
<path d="M1249.31 514.627V378.624C1249.31 373.303 1244.88 368.99 1239.41 368.99H1109.21C1103.74 368.99 1099.31 373.303 1099.31 378.624V514.627C1099.31 519.947 1103.74 524.26 1109.21 524.26H1239.41C1244.88 524.26 1249.31 519.947 1249.31 514.627Z" fill="#9BC4ED"/>
<path d="M1219.29 452.768C1199.6 479.828 1205.52 501.016 1192 504.858C1191.36 505.048 1190.75 505.129 1190.2 505.129C1190.11 505.129 1190.06 505.129 1189.97 505.129C1189.97 505.129 1189.89 505.129 1189.83 505.129C1189.81 505.129 1189.75 505.129 1189.72 505.129C1189.67 505.129 1189.58 505.129 1189.53 505.129C1189.47 505.129 1189.44 505.129 1189.39 505.129C1189.36 505.129 1189.33 505.129 1189.31 505.129C1189.25 505.129 1189.19 505.129 1189.14 505.102C1189.08 505.102 1189.03 505.102 1189 505.075C1189 505.075 1188.97 505.075 1188.94 505.075C1188.92 505.075 1188.86 505.075 1188.83 505.048C1188.83 505.048 1188.8 505.048 1188.78 505.048C1188.72 505.048 1188.64 504.994 1188.58 504.994C1188.53 504.994 1188.47 504.967 1188.44 504.94C1188.44 504.94 1188.41 504.94 1188.39 504.94C1188.33 504.94 1188.28 504.885 1188.22 504.858C1188.16 504.831 1188.11 504.804 1188.03 504.777C1187.97 504.75 1187.89 504.723 1187.83 504.669C1187.77 504.642 1187.69 504.588 1187.64 504.561C1187.58 504.534 1187.55 504.507 1187.5 504.48C1187.44 504.452 1187.39 504.398 1187.33 504.344C1187.19 504.263 1187.08 504.155 1186.97 504.047C1186.94 504.02 1186.88 503.965 1186.86 503.938C1186.83 503.911 1186.77 503.884 1186.75 503.83C1186.75 503.83 1186.63 503.695 1186.55 503.641C1186.52 503.614 1186.5 503.587 1186.47 503.56C1186.41 503.478 1186.33 503.424 1186.27 503.343C1186.19 503.235 1186.11 503.127 1185.99 503.018C1185.99 502.991 1185.94 502.937 1185.91 502.91C1185.91 502.91 1185.91 502.91 1185.91 502.883C1185.88 502.829 1185.86 502.802 1185.8 502.748C1185.77 502.694 1185.72 502.639 1185.69 502.585C1185.6 502.45 1185.49 502.288 1185.41 502.152C1185.38 502.098 1185.35 502.044 1185.33 501.99C1185.3 501.936 1185.24 501.855 1185.22 501.801C1185.22 501.747 1185.16 501.692 1185.13 501.665C1184.94 501.314 1184.74 500.935 1184.58 500.529C1184.55 500.448 1184.52 500.366 1184.46 500.312C1184.38 500.096 1184.3 499.906 1184.21 499.69C1184.21 499.636 1184.16 499.555 1184.13 499.501C1184.13 499.446 1184.07 499.392 1184.07 499.311C1184.07 499.257 1184.02 499.203 1184.02 499.122C1183.99 499.013 1183.94 498.878 1183.91 498.77C1183.88 498.689 1183.85 498.608 1183.82 498.499C1183.8 498.418 1183.77 498.337 1183.74 498.256C1183.71 498.12 1183.66 498.012 1183.63 497.877L1183.57 497.66C1183.57 497.66 1183.52 497.471 1183.49 497.39C1183.49 497.309 1183.44 497.2 1183.41 497.092C1183.3 496.713 1183.18 496.307 1183.1 495.902C1183.07 495.793 1183.05 495.685 1183.02 495.577C1182.99 495.414 1182.93 495.252 1182.91 495.09C1182.91 494.982 1182.85 494.873 1182.82 494.765C1182.8 494.63 1182.77 494.494 1182.74 494.359C1182.71 494.224 1182.68 494.088 1182.66 493.953C1182.66 493.845 1182.6 493.737 1182.57 493.628C1182.49 493.277 1182.43 492.898 1182.35 492.546C1182.35 492.411 1182.29 492.275 1182.27 492.14C1182.27 492.005 1182.21 491.87 1182.18 491.734C1182.18 491.68 1182.18 491.626 1182.16 491.572C1180.32 481.424 1179.87 469.085 1175.92 467.218C1169.11 470.438 1172.72 505.129 1161.57 505.373C1160.96 505.373 1160.32 505.291 1159.65 505.102C1146.13 501.259 1152.08 480.071 1132.36 453.011C1112.66 425.951 1128.27 395.671 1145.27 396.645C1150.19 396.916 1154.64 397.863 1158.54 399.081C1167.13 401.787 1176.29 402.274 1185.08 400.596C1187.25 400.19 1189.36 399.622 1191.47 398.946C1193.45 398.296 1195.59 397.755 1197.96 397.349C1197.96 397.349 1197.96 397.349 1197.98 397.349C1200.63 396.889 1203.49 396.645 1206.64 396.645C1223.66 396.645 1239.24 425.951 1219.55 453.011L1219.29 452.768Z" fill="white"/>
<path d="M234.467 591.586V609.094H213.769V629.253H195.769V609.094H175.071V591.586H195.769V571.453H213.769V591.586H234.467Z" fill="#9BC4ED"/>
<path d="M978.93 321.879V339.414H958.232V359.546H940.233V339.414H919.534V321.879H940.233V301.746H958.232V321.879H978.93Z" fill="#9BC4ED"/>
<path d="M1085.76 646.68C1073.35 646.68 1063.22 636.857 1063.22 624.761C1063.22 612.666 1073.32 602.843 1085.76 602.843C1098.19 602.843 1108.29 612.666 1108.29 624.761C1108.29 636.857 1098.19 646.68 1085.76 646.68ZM1085.76 607.199C1075.8 607.199 1067.68 615.101 1067.68 624.788C1067.68 634.476 1075.8 642.377 1085.76 642.377C1095.72 642.377 1103.84 634.476 1103.84 624.788C1103.84 615.101 1095.72 607.199 1085.76 607.199Z" fill="#9BC4ED"/>
<path d="M698.922 423.949C686.514 423.949 676.388 414.126 676.388 402.03C676.388 389.935 686.486 380.112 698.922 380.112C711.357 380.112 721.456 389.935 721.456 402.03C721.456 414.126 711.357 423.949 698.922 423.949ZM698.922 384.441C688.962 384.441 680.839 392.343 680.839 402.03C680.839 411.718 688.962 419.619 698.922 419.619C708.881 419.619 717.005 411.718 717.005 402.03C717.005 392.343 708.881 384.441 698.922 384.441Z" fill="#9BC4ED"/>
<path d="M1202.6 1080.8H993.508V1232.47H1202.6V1080.8Z" fill="#7FAFE1"/>
<path d="M1223.33 1080.8H1014.23V1232.47H1223.33V1080.8Z" fill="#9BC4ED"/>
<path d="M1223.33 1226.58H1014.23V1232.34H1223.33V1226.58Z" fill="#7FAFE1"/>
<path d="M1223.33 1155.44H1014.23V1161.2H1223.33V1155.44Z" fill="#7FAFE1"/>
<path d="M1056.69 1143.42H1040.55V1175.43H1056.69V1143.42Z" fill="#7FAFE1"/>
<path d="M1196.93 1143.42H1180.79V1175.43H1196.93V1143.42Z" fill="#7FAFE1"/>
<path d="M1165.16 1080.8H1157.01V1057.75C1157.01 1052.58 1152.69 1048.39 1147.38 1048.39H1076.27C1070.96 1048.39 1066.65 1052.58 1066.65 1057.75V1080.8H1058.5V1057.75C1058.5 1048.22 1066.48 1040.46 1076.27 1040.46H1147.38C1157.17 1040.46 1165.16 1048.22 1165.16 1057.75V1080.8Z" fill="#7FAFE1"/>
<path d="M1071.63 1062.62H1052.93V1080.8H1071.63V1062.62Z" fill="#7FAFE1"/>
<path d="M1170.42 1062.62H1151.72V1080.8H1170.42V1062.62Z" fill="#7FAFE1"/>
<path d="M342.937 748.263V690.869C342.937 688.65 341.268 686.864 339.237 686.864H299.621C297.591 686.864 295.921 688.65 295.921 690.869V748.263H342.937Z" fill="#9BC4ED"/>
<path d="M338.625 742.175V696.579C338.625 694.793 337.262 693.332 335.593 693.332H303.238C301.569 693.332 300.206 694.793 300.206 696.579V742.175H338.597H338.625Z" fill="#7FAFE1"/>
<path d="M335.676 684.483H303.127C302.849 684.483 302.626 684.266 302.626 683.996V674.173C302.626 673.334 303.322 672.685 304.156 672.685H334.563C335.426 672.685 336.094 673.361 336.094 674.173V684.077C336.094 684.32 335.899 684.51 335.648 684.51L335.676 684.483Z" fill="white"/>
<path d="M306.326 686.864H332.56V684.482H306.326V686.864Z" fill="#9BC4ED"/>
<path d="M343.494 705.4H295.17C294.986 705.4 294.836 705.545 294.836 705.725V727.724C294.836 727.904 294.986 728.049 295.17 728.049H343.494C343.678 728.049 343.827 727.904 343.827 727.724V705.725C343.827 705.545 343.678 705.4 343.494 705.4Z" fill="white"/>
<path d="M343.827 708.35H294.836V723.909H343.827V708.35Z" fill="#9BC4ED"/>
<path d="M267.378 748.263V690.869C267.378 688.65 265.709 686.864 263.678 686.864H224.062C222.032 686.864 220.362 688.65 220.362 690.869V748.263H267.378Z" fill="#9BC4ED"/>
<path d="M263.066 742.175V696.579C263.066 694.793 261.703 693.332 260.034 693.332H227.679C226.01 693.332 224.646 694.793 224.646 696.579V742.175H263.038H263.066Z" fill="#7FAFE1"/>
<path d="M260.117 684.483H227.512C227.262 684.483 227.067 684.294 227.067 684.05V674.146C227.067 673.307 227.762 672.658 228.597 672.658H259.004C259.867 672.658 260.534 673.334 260.534 674.146V684.05C260.534 684.294 260.34 684.483 260.089 684.483H260.117Z" fill="white"/>
<path d="M230.739 686.864H256.973V684.483H230.739V686.864Z" fill="#9BC4ED"/>
<path d="M267.907 705.4H219.583C219.399 705.4 219.25 705.546 219.25 705.725V727.725C219.25 727.904 219.399 728.05 219.583 728.05H267.907C268.091 728.05 268.241 727.904 268.241 727.725V705.725C268.241 705.546 268.091 705.4 267.907 705.4Z" fill="white"/>
<path d="M268.241 708.35H219.25V723.909H268.241V708.35Z" fill="#9BC4ED"/>
<path d="M611.845 844.136C611.845 844.136 630.763 915.467 657.275 906.672C683.788 897.878 814.931 850.468 865.758 798.946C865.758 798.946 914.889 845.462 955.979 863.701C1007.45 886.539 1124.73 946.64 1124.73 946.64L1146.38 910.731C1146.38 910.731 927.324 732.352 891.798 710.622C856.272 688.92 599.465 754.595 599.465 754.595L611.845 844.109V844.136Z" fill="#24318E"/>
<path d="M1081.11 888.38L1154.81 933.489L1137.11 957.437L1054.35 925.452L1081.11 888.38Z" fill="#FD8563"/>
<path d="M1237.18 913.844L1137.31 991.695C1135.92 990.342 1134.61 988.854 1133.36 987.311C1132.8 986.635 1132.3 985.931 1131.72 985.255C1120.51 972.131 1097.8 944.07 1107.46 943.285C1122.31 949.076 1134.72 932.109 1134.72 932.109C1134.72 932.109 1134.19 911.57 1144.18 910.136C1154.17 908.702 1152.44 922.097 1166.6 921.88C1177.43 921.691 1183.43 912.274 1194.84 906.402C1198.32 904.589 1202.3 903.155 1207.08 902.397C1218.24 900.638 1226.17 904.21 1231.12 907.809C1235.21 910.84 1237.21 913.844 1237.21 913.844H1237.18Z" fill="#5A91FF"/>
<path d="M1113.55 959.007C1129.1 955.245 1145.15 957.735 1158.73 966.015C1159.73 966.61 1158.79 968.126 1157.79 967.531C1144.6 959.494 1129.1 957.085 1114 960.711C1112.86 960.982 1112.41 959.277 1113.55 959.007Z" fill="white"/>
<path d="M1231.09 907.782L1207.53 926.156C1198.04 920.284 1195.2 912.68 1194.81 906.402C1198.29 904.589 1202.27 903.155 1207.05 902.397C1218.21 900.638 1226.14 904.21 1231.09 907.809V907.782Z" fill="white"/>
<path d="M1237.18 913.843L1137.31 991.695C1135.92 990.342 1134.61 988.854 1133.36 987.311L1131.69 985.282L1231.09 907.809C1235.18 910.84 1237.18 913.843 1237.18 913.843Z" fill="white"/>
<path d="M546.357 903.75C546.357 903.75 551.671 917.225 578.907 923.639C641.279 938.305 774.12 895.74 832.458 847.14C832.458 847.14 892.911 868.22 933.89 886.675C982.575 908.62 1097.05 947.073 1097.05 947.073L1120.87 909.405C1120.87 909.405 878.528 744.231 842 724.152C805.473 704.074 554.314 794.698 554.314 794.698L546.329 903.723L546.357 903.75Z" fill="#275CC7"/>
<path d="M1108.4 897.093L1079.33 943.852L1097.14 953.107L1122.65 909.784L1108.4 897.093Z" fill="#5A91FF"/>
<path d="M338.708 402.382C338.708 402.382 368.281 415.614 378.658 434.989C389.035 454.364 398.41 503.451 420.805 524.666C461.061 562.794 471.438 571.886 466.959 598.702C463.565 619.16 431.349 635.233 403.195 630.931C375.041 626.628 366.501 544.149 366.501 544.149L338.681 402.382H338.708Z" fill="#10283B"/>
<path d="M380.383 507.483C381.579 511.244 383.332 517.603 385.14 524.233C388.423 536.437 389.202 560.71 389.202 560.71L335.342 585.226L316.286 504.317L379.048 504.019C379.27 504.236 379.771 505.508 380.383 507.51V507.483Z" fill="#D4652D"/>
<path d="M380.383 507.483C381.579 511.244 383.332 517.604 385.14 524.233C377.045 524.017 364.526 520.066 350.699 515.006L380.411 507.483H380.383Z" fill="#10283B"/>
<path d="M586.613 924.234C550.391 906.347 552.171 883.806 558.125 868.22C562.993 855.447 583.274 826.926 594.931 815.101C624.114 785.497 624.67 755.515 622.834 748.56C621.026 741.606 526.271 662.185 524.657 656.178C523.044 650.17 536.731 621.676 506.463 602.626C464.622 576.296 473.218 595.13 388.924 554.703C391.288 565.662 374.123 560.169 357.737 554.757C344.912 568.963 339.71 588.23 343.688 606.739C352.452 647.978 379.437 683.806 420.388 751.023C461.84 819.052 528.775 922.421 548.61 924.234C548.61 924.234 575.485 931.513 586.613 924.234Z" fill="#5A91FF"/>
<path d="M429.346 657.801C442.895 683.481 458.752 707.971 475.305 731.892C493.165 757.653 512.055 782.764 531.835 807.172C541.767 819.404 551.949 831.445 562.493 843.162C563.633 844.434 565.497 842.567 564.385 841.322C544.688 819.431 526.188 796.484 508.466 773.077C489.688 748.317 471.716 722.908 455.135 696.686C446.845 683.562 438.889 670.195 431.655 656.475C430.876 654.987 428.567 656.313 429.346 657.774V657.801Z" fill="#275CC7"/>
<path d="M454.245 649.954C454.245 649.954 498.757 713.464 529.053 721.555C559.321 729.646 599.104 721.555 599.104 721.555C599.104 721.555 624.142 713.951 633.295 747.208C633.295 747.208 545.689 797.188 501.762 777.001C457.834 756.787 397.298 680.586 397.298 680.586L454.273 649.981L454.245 649.954Z" fill="#D4652D"/>
<path d="M517.369 716.927C509.579 719.633 502.151 722.799 495.725 727.941C494.473 728.942 496.253 730.647 497.505 729.673C503.598 724.802 510.692 721.825 518.036 719.282C519.539 718.768 518.899 716.413 517.369 716.927Z" fill="#983B2D"/>
<path d="M500.092 718.822C505.796 718.497 511.471 718.66 517.146 719.309C518.732 719.498 518.732 717.063 517.146 716.874C511.471 716.224 505.796 716.062 500.092 716.386C498.479 716.468 498.479 718.903 500.092 718.822Z" fill="#983B2D"/>
<path d="M348.028 615.642C338.43 591.558 360.241 566.501 386.114 572.319C386.559 572.427 387.004 572.535 387.477 572.643C423.81 581.627 471.827 654.689 471.827 654.689C471.827 654.689 437.358 697.823 396.713 694.224C396.713 694.224 365.249 658.83 348.028 615.642Z" fill="#275CC7"/>
<path d="M520.846 655.583C511.666 663.105 501.177 668.247 489.493 670.844C486.878 671.44 487.629 675.417 490.244 674.822C502.624 672.062 513.836 666.65 523.517 658.667C525.576 656.99 522.877 653.878 520.846 655.555V655.583Z" fill="#275CC7"/>
<path d="M368.671 573.212C394.432 538.9 376.182 504.561 364.859 499.013C364.859 499.013 329.111 488.243 347.416 463.673C365.722 439.102 356.625 415.181 343.994 405.034C340.183 401.976 333.339 400.731 325.661 400.542C294.558 399.703 262.677 426.032 261.898 451.334C261.759 455.69 260.952 461.968 261.898 466.352C268.241 495.333 274.361 507.348 296.867 545.421C297.146 545.394 297.452 545.475 297.73 545.746C301.625 549.67 304.128 554.649 306.298 559.628C308.802 565.364 311.111 571.101 313.921 576.703C326.106 600.921 339.237 624.599 352.535 648.276C359.129 660.02 365.722 671.737 372.009 683.644C375.181 689.651 378.269 695.712 381.245 701.828C381.412 702.153 381.551 702.45 381.691 702.775C394.043 698.418 405.421 689.272 413.767 674.714C429.791 646.707 342.882 607.551 368.643 573.239L368.671 573.212Z" fill="#10283B"/>
<path d="M360.853 476.337C359.435 470.844 355.317 466.433 350.004 464.133C343.132 461.156 331.475 457.233 325.884 461.887C317.649 468.733 321.738 477.23 327.859 484.644C334.007 492.059 346.248 499.122 356.43 490.408C361.521 486.052 361.994 480.802 360.853 476.337Z" fill="#D4652D"/>
<path d="M347.945 482.263C346.331 478.691 344.384 475.119 341.129 472.684C338.236 470.519 332.394 468.327 329.389 471.737C328.388 472.873 326.384 471.547 327.386 470.411C330.279 467.137 334.981 467.164 338.876 468.733C344.495 470.979 347.75 476.12 350.115 481.289C350.755 482.669 348.557 483.67 347.917 482.263H347.945Z" fill="#10283B"/>
<path d="M379.242 446.436C380.466 448.276 380.578 450.36 379.465 451.063C378.352 451.767 376.46 450.82 375.208 448.979C373.984 447.139 373.873 445.056 374.986 444.352C376.099 443.649 377.99 444.596 379.242 446.436Z" fill="#10283B"/>
<path d="M406.478 482.155C404.447 484.644 401.693 486.403 398.327 485.835C396.63 485.537 397.186 482.967 398.883 483.264C401.304 483.67 403.056 482.155 404.475 480.423C405.56 479.097 407.563 480.829 406.506 482.155H406.478Z" fill="#983B2D"/>
<path d="M366.668 466.163C367.892 468.003 371.842 467.624 375.431 465.324C379.048 463.024 380.967 459.668 379.743 457.855C378.519 456.015 374.569 456.394 370.98 458.694C367.363 460.994 365.444 464.349 366.668 466.163Z" fill="#983B2D"/>
<path d="M405.171 477.555C404.92 477.744 404.67 477.907 404.392 478.096C392.902 485.483 382.414 472.468 382.414 472.468C388.812 470.384 393.903 468.165 397.77 466.163C400.552 470.167 403.056 474.01 405.171 477.555Z" fill="white"/>
<path d="M383.666 447.166C383.666 447.166 394.46 454.77 397.604 456.367C400.747 457.963 396.407 464.214 396.407 464.214L383.666 447.166Z" fill="#D4652D"/>
<path d="M371.62 439.752C368.643 440.347 365.722 442.702 366.362 445.976C366.974 449.007 362.217 450.468 361.577 447.383C360.408 441.646 364.22 436.261 370.145 435.098C373.261 434.475 374.763 439.13 371.592 439.752H371.62Z" fill="#10283B"/>
<path d="M330.473 587.649L312.645 598.036L411.781 759.027L429.609 748.641L330.473 587.649Z" fill="#24318E"/>
<path d="M232.714 485.132L297.062 589.664C307.856 607.172 331.169 612.855 349.169 602.383L245.762 434.448C227.762 444.948 221.92 467.624 232.687 485.132H232.714Z" fill="#275CC7"/>
<path d="M1082.11 939.388L1070.26 968.531L832.653 888.38C832.653 888.38 606.421 964.878 558.181 969.37C534.255 971.589 505.684 929.321 505.684 929.321L379.715 723.882L412.32 704.886L529.721 896.335C537.816 909.513 549.918 920.013 564.468 925.912C570.783 928.483 577.46 930.16 583.469 929.619C623.419 925.993 832.458 847.14 832.458 847.14L1082.09 939.361L1082.11 939.388Z" fill="#275CC7"/>
<path d="M783.829 915.602H816.35V1017.89C816.35 1023.46 811.704 1028.01 805.946 1028.01H794.233C788.502 1028.01 783.829 1023.49 783.829 1017.89V915.602Z" fill="#275CC7"/>
<path d="M808.783 889.354H791.396V1226.06H808.783V889.354Z" fill="#275CC7"/>
<path d="M1002.19 1179.11V1198.87H987.471V1189.94C987.471 1187.42 985.385 1185.36 982.77 1185.36H919.73C917.56 1185.36 915.779 1187.07 915.779 1189.21V1198.87H898.67V1189.21C898.67 1187.1 896.917 1185.36 894.719 1185.36H832.152C829.565 1185.36 827.451 1187.39 827.451 1189.94V1198.87H812.734V1179.11C812.734 1174.67 816.434 1171.08 820.996 1171.08H898.642V916.36H915.751V1171.08H993.87C998.432 1171.08 1002.13 1174.67 1002.13 1179.11H1002.19Z" fill="#10283B"/>
<path d="M842.028 1214.82C843.785 1203.17 835.497 1192.34 823.518 1190.63C811.539 1188.93 800.404 1196.99 798.648 1208.64C796.892 1220.29 805.179 1231.12 817.158 1232.83C829.138 1234.54 840.272 1226.48 842.028 1214.82Z" fill="#10283B"/>
<path d="M820.301 1223.87C813.374 1223.87 807.754 1218.4 807.754 1211.67C807.754 1204.93 813.374 1199.46 820.301 1199.46C827.228 1199.46 832.848 1204.93 832.848 1211.67C832.848 1218.4 827.228 1223.87 820.301 1223.87Z" fill="#2E4970"/>
<path d="M929.383 1211.64C929.383 1223.41 919.563 1232.96 907.461 1232.96C895.359 1232.96 885.539 1223.41 885.539 1211.64C885.539 1199.87 895.359 1190.32 907.461 1190.32C919.563 1190.32 929.383 1199.87 929.383 1211.64Z" fill="#10283B"/>
<path d="M907.461 1223.87C900.534 1223.87 894.914 1218.4 894.914 1211.67C894.914 1204.93 900.534 1199.46 907.461 1199.46C914.388 1199.46 920.008 1204.93 920.008 1211.67C920.008 1218.4 914.388 1223.87 907.461 1223.87Z" fill="#2E4970"/>
<path d="M1016.48 1214.94C1018.42 1203.32 1010.29 1192.37 998.343 1190.49C986.391 1188.6 975.135 1196.5 973.201 1208.13C971.267 1219.75 979.389 1230.7 991.34 1232.58C1003.29 1234.47 1014.55 1226.57 1016.48 1214.94Z" fill="#10283B"/>
<path d="M994.927 1223.87C988 1223.87 982.38 1218.4 982.38 1211.67C982.38 1204.93 988 1199.46 994.927 1199.46C1001.85 1199.46 1007.47 1204.93 1007.47 1211.67C1007.47 1218.4 1001.85 1223.87 994.927 1223.87Z" fill="#2E4970"/>
<path d="M1044.72 892.222H781.548C767.996 892.222 757.01 902.908 757.01 916.089V920.743C757.01 933.925 767.996 944.61 781.548 944.61H1044.72C1058.28 944.61 1069.26 933.925 1069.26 920.743V916.089C1069.26 902.908 1058.28 892.222 1044.72 892.222Z" fill="#10283B"/>
<path d="M770.42 611.664C770.42 611.664 681.98 727.021 632.989 718.281C583.998 709.513 547.693 475.688 547.693 475.688L572.425 455.258L645.285 619.864L718.535 535.49L770.42 611.637V611.664Z" fill="#FD945C"/>
<path d="M646.481 618.727C650.96 630.119 652.379 642.188 650.543 654.257C650.293 655.853 647.706 655.61 647.956 654.013C649.709 642.377 648.429 630.769 644.117 619.782C643.532 618.267 645.897 617.212 646.481 618.727Z" fill="#D4652D"/>
<path d="M647.566 623.192C653.826 628.415 658.055 634.909 660.308 642.621C660.753 644.191 658.194 644.569 657.749 643.027C655.718 636.019 651.739 630.011 646.064 625.276C644.812 624.22 646.287 622.137 647.566 623.192Z" fill="#D4652D"/>
<path d="M562.66 461.265C562.66 461.265 578.768 455.772 570.533 441.132C564.83 430.958 569.42 405.007 567.139 401.408C563.133 395.076 554.342 404.493 554.509 424.111C554.509 424.111 524.546 414.586 517.731 419.024C510.915 423.489 515.505 430.849 515.505 430.849C515.505 430.849 507.326 433.231 506.018 439.075C504.711 444.92 510.469 448.763 510.469 448.763C510.469 448.763 504.488 449.656 504.266 454.879C504.043 460.101 511.944 463.186 511.944 463.186C511.944 463.186 505.239 462.618 505.851 468.138C506.463 473.658 512.779 478.908 536.175 479.368C559.572 479.801 562.632 461.265 562.632 461.265H562.66Z" fill="#5A91FF"/>
<path d="M525.798 465.243C522.766 464.647 519.761 464.079 516.729 463.484C515.199 463.186 515.477 460.832 517.035 461.129C520.067 461.725 523.072 462.293 526.104 462.888C527.634 463.186 527.356 465.54 525.798 465.243Z" fill="#24318E"/>
<path d="M544.438 425.573C548.249 432.256 543.019 438.805 535.535 438.615C535.73 437.858 535.925 437.1 536.147 436.342C540.543 438.02 542.991 442.458 541.35 446.923C539.597 451.658 534.45 453.58 529.665 452.524C529.943 451.821 530.249 451.117 530.528 450.414C537.538 454.878 535.563 466.217 526.215 465.215C526.577 464.566 526.939 463.944 527.3 463.294C530.11 466 532.058 469.761 530.611 473.631C529.387 476.878 526.049 478.556 522.655 477.771C521.152 477.419 521.43 475.065 522.961 475.417C526.438 476.229 528.942 473.658 528.664 470.33C528.469 468.03 527.022 466.298 525.437 464.782C524.63 464.025 525.576 462.78 526.522 462.861C533.643 463.619 533.866 455.338 529.081 452.308C528.107 451.685 528.775 449.926 529.943 450.197C532.948 450.874 536.231 450.387 538.15 447.789C540.654 444.433 539.041 440.023 535.201 438.561C533.838 438.047 534.478 436.261 535.813 436.288C541.572 436.424 545.022 431.499 542.212 426.547C541.461 425.221 543.686 424.274 544.438 425.6V425.573Z" fill="#24318E"/>
<path d="M536.815 439.346C532.392 437.344 527.885 435.612 523.239 434.151C521.737 433.691 522.655 431.499 524.157 431.959C528.803 433.42 533.31 435.152 537.733 437.154C539.152 437.804 538.262 439.996 536.815 439.346Z" fill="#24318E"/>
<path d="M530.055 452.822C526.104 451.388 522.154 449.954 518.231 448.52C516.757 447.978 517.675 445.786 519.149 446.328C523.1 447.762 527.05 449.196 530.973 450.63C532.447 451.171 531.529 453.363 530.055 452.822Z" fill="#24318E"/>
<path d="M545.217 473.496L556.706 545.719C577.488 546.855 591.759 537.817 607.366 524.341L572.842 448.546L545.217 473.496Z" fill="#5A91FF"/>
<path d="M556.512 535.842C572.842 534.273 588.004 526.966 599.104 515.222C599.994 514.275 598.548 512.868 597.657 513.815C586.947 525.153 572.286 532.324 556.512 533.84C555.204 533.975 555.204 535.95 556.512 535.842Z" fill="#24318E"/>
<path d="M548.889 461.508C545.884 461.643 543.241 462.645 540.96 464.539C539.764 465.54 538.262 463.673 539.43 462.699C542.017 460.561 545.161 459.343 548.527 459.181C550.085 459.1 550.447 461.454 548.889 461.508Z" fill="#24318E"/>
<path d="M544.493 444.839C545.801 454.852 552.255 463.375 561.714 467.543C563.133 468.165 562.243 470.357 560.796 469.735C550.558 465.243 543.492 456.042 542.073 445.191C541.878 443.676 544.271 443.324 544.466 444.839H544.493Z" fill="#24318E"/>
<path d="M563.555 403.814L529.729 452.777L537.487 457.848L571.313 408.885L563.555 403.814Z" fill="#10283B"/>
<path d="M564.02 419.911L555.869 414.583C555.061 414.055 554.841 412.966 555.384 412.179L571.971 388.17C573.849 385.452 577.632 384.73 580.426 386.556L581.419 387.205C584.213 389.031 584.955 392.711 583.078 395.429L566.491 419.439C565.948 420.225 564.828 420.439 564.02 419.911Z" fill="#275CC7"/>
<path d="M534.44 450.642L511.895 483.277L515.266 485.48L537.811 452.846L534.44 450.642Z" fill="#10283B"/>
<path d="M490.773 483.806C496.699 475.228 508.661 472.955 517.48 478.719C526.299 484.482 528.636 496.118 522.71 504.696C516.785 513.274 504.822 515.547 496.003 509.783C487.184 504.02 484.847 492.384 490.773 483.806Z" fill="#275CC7"/>
<path d="M493.666 486.106C498.451 479.178 508.105 477.338 515.199 481.993C515.811 482.399 516.395 482.832 516.924 483.292C517.786 484.049 518.565 484.888 519.205 485.781C520.652 487.756 521.57 490.029 521.904 492.384C522.21 494.521 522.07 496.74 521.403 498.878C520.958 500.285 520.318 501.638 519.428 502.91C514.643 509.837 504.989 511.677 497.895 507.023C496.587 506.157 495.447 505.156 494.501 504.019C493.054 502.288 492.053 500.312 491.496 498.202C490.884 495.902 490.856 493.439 491.413 491.085C491.663 490.002 492.053 488.947 492.553 487.919C492.859 487.296 493.221 486.674 493.638 486.079L493.666 486.106Z" fill="#DAEEFD"/>
<path d="M533.755 418.916C533.755 418.916 554.202 422.299 556.038 427.873C557.624 432.717 553.59 438.426 544.855 437.398C536.119 436.37 525.826 432.5 525.826 432.5L533.727 418.916H533.755Z" fill="#5A91FF"/>
<path d="M524.852 434.989C524.852 434.989 539.653 436.857 542.073 441.376C544.493 445.895 539.263 453.363 530.945 450.603C522.543 447.816 518.343 446.165 518.343 446.165L524.852 434.962V434.989Z" fill="#5A91FF"/>
<path d="M782.577 634.828C772.923 642.675 760.321 651.253 751.252 657.206C750.667 657.585 750.083 657.964 749.554 658.316C743.601 662.185 739.567 664.702 739.567 664.702C717.255 646.058 683.593 568.828 683.593 568.828C721.262 526.344 744.157 483.021 744.157 483.021C744.157 483.021 818.437 605.711 782.577 634.828Z" fill="#275CC7"/>
<path d="M751.251 657.206C750.667 657.585 750.083 657.964 749.554 658.316C727.966 627.44 708.993 594.995 691.132 561.928C690.52 560.791 692.273 559.79 692.885 560.927C710.746 593.94 729.719 626.331 751.251 657.206Z" fill="white"/>
<path d="M804.916 418.023C804.916 418.023 765.579 448.059 749.777 471.71C735.199 493.547 745.437 501.773 760.46 600.353C775.483 698.96 755.118 756.435 745.381 809.121C734.476 868.166 710.106 855.637 812.122 863.052C863.422 866.759 998.098 853.012 1018.6 843.027C1039.08 833.042 1001.05 622.759 998.321 574.754C995.594 526.75 1005.41 473.469 975.369 447.518C945.324 421.568 864.395 402.057 864.395 402.057L804.888 418.05L804.916 418.023Z" fill="#275CC7"/>
<path d="M761.099 720.96C759.18 734.084 757.344 747.235 753.532 760.007C753.087 761.522 755.508 762.172 755.953 760.657C759.764 747.884 761.6 734.733 763.52 721.609C763.742 720.067 761.322 719.417 761.099 720.96Z" fill="#24318E"/>
<path d="M770.503 557.084L772.283 577.731H816.879L814.848 557.084H770.503Z" fill="white"/>
<path d="M788.085 431.255C784.246 452.984 799.13 474.172 821.58 477.961C843.864 481.722 863.477 466.758 873.492 448.519C880.308 436.099 883.563 422.244 886.15 408.498C886.345 407.469 884.732 407.036 884.537 408.065C880.586 429.172 874.605 451.604 857.051 466.054C849.15 472.549 839.218 476.932 828.758 476.932C817.908 476.932 807.086 472.468 799.658 464.755C791.229 455.988 787.612 443.459 789.698 431.688C789.893 430.66 788.252 430.227 788.085 431.255Z" fill="white"/>
<path d="M887.625 483.21C898.364 456.475 923.569 440.51 953.03 441.321C955.005 441.375 955.005 438.372 953.03 438.345C922.15 437.533 895.888 454.5 884.648 482.425C883.925 484.211 886.902 484.996 887.625 483.21Z" fill="#24318E"/>
<path d="M796.793 510.162C817.992 518.902 843.53 514.194 859.805 498.283C861.196 496.93 859.026 494.792 857.635 496.172C842.418 511.055 818.242 515.79 798.351 507.591C796.542 506.861 794.984 509.431 796.793 510.162Z" fill="#24318E"/>
<path d="M804.276 730.647C837.465 763.39 880.837 785.768 927.324 794.103C929.244 794.454 930.078 791.559 928.131 791.207C882.116 782.954 839.302 760.927 806.446 728.509C805.055 727.129 802.885 729.24 804.276 730.62V730.647Z" fill="#24318E"/>
<path d="M749.693 536.708C756.37 574.673 761.044 612.963 763.659 651.388C763.798 653.31 766.858 653.31 766.719 651.388C764.076 612.693 759.347 574.132 752.642 535.896C752.308 534.002 749.36 534.814 749.666 536.681L749.693 536.708Z" fill="#24318E"/>
<path d="M765.607 345.854C765.607 345.854 758.902 339.143 753.811 322.853C748.72 306.563 735.616 307.266 736.34 299.5C737.063 291.707 747.996 291.707 747.996 291.707C747.996 291.707 734.17 274.01 745.826 266.216C757.483 258.423 766.942 266.216 766.942 266.216C766.942 266.216 767.665 251.36 782.215 254.175C796.765 257.016 797.488 264.782 797.488 264.782C797.488 264.782 810.424 258.152 818.604 261.237C831.707 266.189 829.509 274.686 829.509 274.686C829.509 274.686 848.955 270.708 852.794 283.183C854.964 290.273 849.873 299.473 849.873 299.473L765.607 345.827V345.854Z" fill="#10283B"/>
<path d="M868.874 403.979C868.874 403.979 844.671 447.572 803.414 430.335L802.802 403.464L801.828 385.605L801.133 373.103L845.645 349.344C850.903 371.236 858.859 389.123 868.902 404.006L868.874 403.979Z" fill="#FD945C"/>
<path d="M803.414 430.335C803.414 430.335 803.414 430.551 803.386 430.687C801.717 449.385 824.39 460.345 838.773 447.843C849.4 438.615 861.53 424.409 868.902 404.006L803.442 430.362L803.414 430.335Z" fill="#FD945C"/>
<path d="M840.526 370.1C828.035 401.597 810.202 410.744 803.164 410.338L801.8 385.632L840.526 370.127V370.1Z" fill="#10283B"/>
<path d="M846.312 335.003C846.813 336.924 847.147 338.71 847.369 340.442C847.87 344.447 847.676 348.1 846.869 351.996C845.784 357.138 843.614 362.766 840.554 370.208C835.741 381.925 824.362 388.852 812.4 392.018C780.601 400.434 771.894 380.112 765.69 347.559C761.851 327.345 753.06 317.901 756.009 308.863C756.259 308.403 756.509 307.97 756.76 307.537C762.824 297.227 772.979 289.786 784.719 286.457C786.972 285.808 789.17 285.266 791.257 284.834C791.73 284.725 792.202 284.617 792.675 284.536C792.87 284.482 793.065 284.455 793.26 284.428C793.788 284.319 794.317 284.211 794.845 284.13C795.235 284.049 795.596 283.995 795.986 283.941C796.848 283.805 797.683 283.67 798.518 283.562C824.891 280.26 835.379 293.682 840.387 308.322C843.808 318.28 844.671 328.779 846.257 334.976L846.312 335.003Z" fill="#FD945C"/>
<path d="M787.25 356.272C785.08 356.759 780.601 356.651 779.127 352.7C777.736 348.939 780.518 346.178 782.66 344.961L782.771 339.359C782.771 338.71 783.328 338.169 784.023 338.196C784.691 338.196 785.247 338.737 785.22 339.413L785.108 345.718C785.108 346.178 784.83 346.584 784.413 346.774C784.246 346.855 780.295 348.722 781.464 351.915C782.549 354.892 786.527 354.026 786.722 353.972C787.39 353.809 788.029 354.215 788.196 354.865C788.335 355.487 787.946 356.137 787.306 356.299L787.25 356.272Z" fill="#10283B"/>
<path d="M792.202 336.302C792.842 337.925 794.345 338.872 795.624 338.412C796.876 337.952 797.377 336.275 796.765 334.651C796.125 333.027 794.623 332.08 793.343 332.54C792.091 333 791.59 334.678 792.202 336.302Z" fill="#10283B"/>
<path d="M771.532 342.174C772.172 343.797 773.674 344.744 774.954 344.284C776.206 343.824 776.707 342.147 776.095 340.523C775.455 338.899 773.952 337.952 772.673 338.412C771.421 338.872 770.92 340.55 771.532 342.174Z" fill="#10283B"/>
<path d="M812.149 340.902C812.595 342.607 810.23 344.663 806.864 345.475C803.497 346.287 800.409 345.583 799.964 343.878C799.519 342.174 801.884 340.117 805.25 339.305C808.616 338.493 811.704 339.197 812.149 340.902Z" fill="#D4652D"/>
<path d="M767.387 355.731C768.695 356.191 770.559 356.218 772.478 355.731C775.844 354.919 778.209 352.862 777.764 351.157C777.319 349.453 774.231 348.749 770.892 349.561C769.056 350.021 767.498 350.833 766.552 351.78L767.387 355.731Z" fill="#D4652D"/>
<path d="M791.396 326.479C793.176 325.261 796.069 324.693 797.544 326.722C798.434 327.94 800.02 328.589 801.467 327.778C802.718 327.074 803.47 325.207 802.552 323.962C799.324 319.551 793.176 318.469 788.558 321.608C787.278 322.474 786.639 324.016 787.473 325.423C788.196 326.641 790.116 327.372 791.396 326.479Z" fill="#10283B"/>
<path d="M768.528 334.462C769.64 332.216 771.226 330.971 773.869 330.998C777.569 330.998 777.708 325.424 774.008 325.396C769.446 325.369 765.607 327.588 763.576 331.593C761.962 334.813 766.886 337.709 768.528 334.462Z" fill="#10283B"/>
<path d="M837.132 346.557C841.666 345.529 845.033 343.31 847.397 340.442C847.898 344.447 847.703 348.1 846.897 351.997C843.336 351.239 839.997 349.561 837.132 346.557Z" fill="#10283B"/>
<path d="M833.209 309.891C821.386 316.358 825.559 337.763 818.103 335.733C810.647 333.704 813.846 296.307 797.321 301.313C780.796 306.319 783.662 308.89 776.122 311.325C763.325 315.411 761.684 309.079 756.036 308.917C756.287 308.484 756.537 308.024 756.787 307.618C762.852 297.308 773.007 289.867 784.747 286.538C787 285.889 789.198 285.348 791.284 284.915C791.757 284.806 792.23 284.698 792.703 284.617C792.898 284.563 793.093 284.536 793.287 284.509C793.816 284.4 794.344 284.292 794.873 284.211C795.263 284.13 795.624 284.076 796.014 284.022C796.876 283.859 797.711 283.751 798.545 283.643C824.919 280.341 835.407 293.763 840.414 308.403C838.217 308.078 835.796 308.511 833.181 309.945L833.209 309.891Z" fill="#10283B"/>
<path d="M818.131 335.733C825.586 337.763 821.386 316.358 833.237 309.891C835.824 308.457 838.272 308.024 840.442 308.349C843.864 318.28 844.727 328.806 846.312 335.003C846.785 336.87 847.147 338.602 847.369 340.307C848.927 326.235 850.485 309.729 849.957 303.045C849.845 301.692 849.651 300.447 849.372 299.284C848.983 299.04 848.621 298.797 848.232 298.58C846.535 297.606 844.754 296.875 842.89 296.334C839.942 295.495 836.798 295.116 833.626 295.143C823.277 295.143 812.261 298.986 804.638 302.341C813.095 308.782 812.066 334.056 818.158 335.733H818.131Z" fill="#D4652D"/>
<path d="M780.824 360.358C780.824 360.358 788.085 357.733 802.412 352.673C802.412 352.673 805.445 368.314 794.706 370.857C785.609 373.022 780.824 360.358 780.824 360.358Z" fill="white"/>
<path d="M794.706 377.243C797.321 377.433 799.881 376.81 801.383 374.564C802.134 373.428 800.27 372.345 799.519 373.482C798.462 375.079 796.57 375.268 794.762 375.133C793.371 375.024 793.343 377.135 794.706 377.243Z" fill="#D4652D"/>
<path d="M825.002 341.335C821.998 336.762 821.525 331.052 823.361 325.911C825.725 319.281 830.538 308.755 837.577 308.024C847.898 306.942 851.32 315.303 852.627 324.368C853.935 333.433 850.958 346.422 838.022 347.613C831.54 348.208 827.478 345.096 825.002 341.362V341.335Z" fill="#FD945C"/>
<path d="M836.492 336.87C835.045 333.298 833.793 329.51 834.294 325.613C834.739 322.149 837.187 316.656 841.722 316.981C843.224 317.089 843.669 314.816 842.139 314.708C837.799 314.41 834.545 317.63 832.987 321.365C830.733 326.75 832.152 332.513 834.266 337.682C834.823 339.062 837.048 338.25 836.492 336.87Z" fill="#10283B"/>
<path d="M825.781 381.925C825.781 382.466 825.614 383.088 825.336 383.657L825.169 383.981C822.415 389.042 811.037 394.481 797.043 394.318C779.572 394.156 775.344 383.575 773.174 380.545C771.393 378.082 768.027 369.91 767.22 364.255C766.803 361.359 767.081 359.113 768.583 358.599C777.792 355.487 775.984 344.853 784.469 348.993C789.365 351.428 799.464 352.078 803.915 352.456C804.722 352.511 805.445 352.727 806.168 353.079C808.116 353.918 809.562 355.731 809.952 357.923C812.789 374.321 826.004 376.892 825.809 381.898L825.781 381.925Z" fill="white"/>
<path d="M842.028 348.803C842.584 354.729 841.333 360.683 838.411 365.905C834.739 372.562 829.481 381.14 825.475 383.792C825.336 383.873 825.253 383.927 825.141 384.008C818.631 387.824 804.304 384.09 805.806 357.354C805.89 355.974 806.029 354.594 806.168 353.133C806.168 352.943 806.224 352.727 806.252 352.511C806.252 352.511 816.155 334.245 824.835 323.177L820.857 333.65C820.857 333.65 810.87 348.316 811.982 359.059C813.151 370.154 821.719 376.432 821.719 376.432C826.143 377.703 839.079 364.065 842.056 348.83L842.028 348.803Z" fill="white"/>
<path d="M825.141 382.791C825.141 382.791 824.919 382.926 824.808 382.98C822.081 387.824 810.87 393.1 797.21 393.1C780.129 393.128 776.123 383.088 774.036 380.247C772.339 377.92 769.112 370.181 768.389 364.823C769.474 364.417 770.67 363.822 771.755 362.902C778.098 357.652 778.626 353.593 782.299 354.08C785.665 354.486 797.989 359.925 806.196 357.841C806.836 357.679 807.476 357.462 808.088 357.192C808.143 357.192 808.199 357.192 808.227 357.138C808.227 357.138 808.255 357.219 808.283 357.354C808.283 357.354 808.31 357.354 808.283 357.408C808.561 358.301 809.423 361.143 810.953 364.66C811.454 365.77 811.955 366.988 812.595 368.205C812.678 368.368 812.789 368.557 812.845 368.719C816.907 376.621 821.135 380.22 825.002 382.655C825.086 382.682 825.114 382.736 825.169 382.764L825.141 382.791Z" fill="#9BC4ED"/>
<path d="M790.227 364.579C787.056 365.851 783.829 366.555 780.407 366.663C779.266 366.717 779.322 364.985 780.462 364.931C783.55 364.823 786.527 364.2 789.393 363.064C790.422 362.658 791.312 364.146 790.255 364.552L790.227 364.579Z" fill="#7FAFE1"/>
<path d="M800.159 369.423C792.648 372.914 784.747 374.294 776.456 373.509C775.344 373.401 775.371 371.696 776.512 371.777C784.496 372.508 792.063 371.263 799.297 367.908C800.326 367.421 801.188 368.936 800.159 369.396V369.423Z" fill="#7FAFE1"/>
<path d="M804.109 376.053C796.376 379.652 788.252 381.059 779.711 380.247C778.598 380.139 778.626 378.407 779.767 378.515C788.002 379.3 795.791 378.001 803.247 374.537C804.276 374.05 805.139 375.566 804.109 376.026V376.053Z" fill="#7FAFE1"/>
<path d="M807.893 383.629C800.131 387.715 791.869 388.879 783.189 387.391C782.076 387.201 782.577 385.551 783.69 385.74C791.869 387.147 799.714 385.984 807.031 382.141C808.032 381.627 808.895 383.115 807.893 383.629Z" fill="#7FAFE1"/>
<path d="M975.397 583.359C984.133 649.927 988.973 716.954 989.836 784.036C990.086 803.059 990.003 822.056 989.613 841.079C989.613 842.351 991.644 842.351 991.672 841.079C993.035 773.997 990.476 706.834 983.938 640.05C982.102 621.108 979.904 602.22 977.428 583.359C977.261 582.115 975.203 582.087 975.369 583.359H975.397Z" fill="white"/>
<path d="M975.397 527.399C975.397 527.399 942.598 692.628 930.579 707.808C900.617 745.692 676.694 709.297 676.694 709.297L679.17 678.908L865.453 650.766L888.209 540.902C922.122 515.222 975.397 527.399 975.397 527.399Z" fill="#FD945C"/>
<path d="M749.221 723.287L675.887 718.687L676.471 675.905L747.913 661.644C747.913 661.644 762.38 706.672 749.249 723.314L749.221 723.287Z" fill="#5A91FF"/>
<path d="M676.471 675.877C676.471 675.877 643.31 678.746 637.217 680.64C626.98 683.833 619.051 695.794 621.36 699.041C623.669 702.288 634.408 692.438 634.408 692.438C634.408 692.438 595.293 718.145 595.988 723.259C597.018 730.972 624.003 714.113 624.003 714.113C624.003 714.113 596.767 732.487 598.186 736.275C600.745 743.067 630.402 724.071 630.402 724.071C630.402 724.071 587.141 758.816 629.511 738.657C629.511 738.657 608.118 760.927 631.264 748.966C638.219 745.395 675.887 718.659 675.887 718.659L676.471 675.877Z" fill="#5A91FF"/>
<path d="M625.644 699.23C630.986 694.386 636.744 690.409 643.56 687.73C645.063 687.134 644.423 684.726 642.893 685.321C635.659 688.163 629.539 692.303 623.864 697.444C622.668 698.554 624.476 700.313 625.672 699.203L625.644 699.23Z" fill="#24318E"/>
<path d="M737.397 666.082C745.91 683.075 747.162 702.829 740.958 720.716C740.541 721.934 742.544 722.394 742.961 721.176C749.332 702.775 747.913 682.48 739.15 665.053C738.566 663.89 736.813 664.918 737.397 666.082Z" fill="#24318E"/>
<path d="M867.122 650.035C876.469 656.989 884.76 665.026 891.993 674.037C893.022 675.336 890.824 676.689 889.795 675.417C882.701 666.569 874.522 658.721 865.369 651.902C864.034 650.901 865.786 649.034 867.122 650.035Z" fill="#D4652D"/>
<path d="M869.904 652.065C875.746 651.605 881.421 652.714 886.651 655.285C888.154 656.016 886.957 658.262 885.455 657.531C880.614 655.15 875.412 654.176 870.015 654.608C868.346 654.744 868.262 652.2 869.932 652.092L869.904 652.065Z" fill="#D4652D"/>
<path d="M991.755 486.376C991.755 486.376 977.818 593.967 963.657 636.559C963.657 636.559 882.506 630.85 863.116 611.312C863.116 611.312 863.477 529.835 879.001 508.809C899.81 480.612 967.858 467.705 991.755 486.403V486.376Z" fill="#275CC7"/>
<path d="M983.187 533.975C978.263 566.771 972.059 599.379 964.547 631.688C964.13 633.528 966.996 634.584 967.441 632.717C975.008 600.136 981.295 567.286 986.247 534.245C986.525 532.351 983.465 532.081 983.187 533.975Z" fill="#24318E"/>
<path d="M868.902 505.21C867.65 538.331 865.119 571.399 861.252 604.331C861.029 606.225 864.006 606.956 864.229 605.034C868.123 571.859 870.711 538.548 871.963 505.156C872.046 503.235 868.958 503.289 868.902 505.21Z" fill="#24318E"/>
<path d="M860.389 525.18C863.088 527.967 865.369 531.052 867.261 534.408C868.207 536.085 870.85 534.57 869.904 532.892C867.873 529.293 865.397 526.019 862.504 523.042C861.141 521.635 859.026 523.8 860.362 525.207L860.389 525.18Z" fill="#24318E"/>
<path d="M869.431 605.982C884.565 610.663 900.256 613.802 915.918 616.237C931.331 618.619 946.938 620.351 962.545 620.513C963.852 620.513 963.824 618.538 962.517 618.51C946.715 618.375 930.913 616.589 915.306 614.127C900.005 611.718 884.704 608.634 869.904 604.06C868.652 603.682 868.179 605.603 869.431 606.009V605.982Z" fill="white"/>
<path d="M525.91 1105.81L509.941 1181.44L554.509 1176.16L582.913 1110.38L525.91 1105.81Z" fill="#FD945C"/>
<path d="M593.206 799.731L491.162 1137.87L590.062 1141.72L730.025 855.989L593.206 799.731Z" fill="#24318E"/>
<path d="M580.464 1117.52C580.27 1117.52 580.047 1117.47 579.852 1117.39C579.101 1117.06 578.767 1116.2 579.101 1115.47L581.355 1110.65C581.689 1109.92 582.579 1109.6 583.33 1109.92C584.081 1110.24 584.415 1111.11 584.081 1111.84L581.828 1116.66C581.577 1117.2 581.021 1117.52 580.464 1117.52ZM588.032 1101.21C587.837 1101.21 587.614 1101.15 587.419 1101.07C586.668 1100.75 586.335 1099.88 586.668 1099.15L592.01 1087.68C592.344 1086.95 593.234 1086.62 593.985 1086.95C594.736 1087.27 595.07 1088.14 594.736 1088.87L589.395 1100.34C589.144 1100.88 588.588 1101.21 588.032 1101.21ZM598.714 1078.26C598.52 1078.26 598.297 1078.21 598.102 1078.12C597.351 1077.8 597.017 1076.93 597.351 1076.2L602.693 1064.73C603.027 1064 603.917 1063.67 604.668 1064C605.419 1064.32 605.753 1065.19 605.419 1065.92L600.078 1077.39C599.827 1077.94 599.271 1078.26 598.714 1078.26ZM609.397 1055.29C609.203 1055.29 608.98 1055.23 608.785 1055.15C608.034 1054.83 607.7 1053.96 608.034 1053.23L613.376 1041.76C613.709 1041.03 614.6 1040.7 615.351 1041.03C616.102 1041.35 616.436 1042.22 616.102 1042.95L610.76 1054.42C610.51 1054.96 609.954 1055.29 609.397 1055.29ZM620.08 1032.31C619.885 1032.31 619.663 1032.26 619.468 1032.18C618.717 1031.85 618.383 1030.99 618.717 1030.26L624.058 1018.78C624.392 1018.05 625.283 1017.73 626.034 1018.05C626.785 1018.38 627.119 1019.24 626.785 1019.97L621.443 1031.45C621.193 1031.99 620.637 1032.31 620.08 1032.31ZM630.763 1009.37C630.568 1009.37 630.346 1009.31 630.151 1009.23C629.4 1008.9 629.066 1008.04 629.4 1007.31L634.741 995.835C635.075 995.104 635.965 994.78 636.717 995.104C637.468 995.429 637.802 996.295 637.468 997.026L632.126 1008.5C631.876 1009.04 631.319 1009.37 630.763 1009.37Z" fill="#275CC7"/>
<path d="M494.362 1114.28L484.513 1145.61L593.679 1149.16L608.424 1117.82L494.362 1114.28Z" fill="#275CC7"/>
<path d="M560.323 1173.32C559.655 1179.84 556.317 1209.91 554.648 1224.71C554.091 1229.71 553.729 1232.99 553.729 1232.99H408.648C409.26 1229.96 409.956 1227.2 410.79 1224.71C415.993 1208.77 425.229 1203.79 435.578 1203.14C447.541 1202.41 491.858 1188.61 491.858 1188.61C491.858 1188.61 490.968 1175.32 499.147 1172.67C507.326 1170.02 525.325 1178.03 525.325 1178.03L547.025 1175.51C547.025 1175.51 561.241 1164.61 560.351 1173.32H560.323Z" fill="white"/>
<path d="M554.648 1224.71C554.091 1229.71 553.729 1232.99 553.729 1232.99H408.648C409.26 1229.96 409.956 1227.2 410.79 1224.71H554.675H554.648Z" fill="#24318E"/>
<path d="M557.402 1192.64C546.441 1198.65 540.098 1210.69 545.606 1222.44C546.19 1223.71 544.271 1224.82 543.659 1223.54C537.65 1210.69 544.16 1197.43 556.261 1190.78C557.513 1190.07 558.654 1191.97 557.402 1192.67V1192.64Z" fill="#24318E"/>
<path d="M496.977 1197.46C491.941 1190.56 483.4 1188.61 476.251 1193.81C475.082 1194.65 473.97 1192.75 475.11 1191.91C483.317 1185.93 493.193 1188.53 498.896 1196.35C499.731 1197.49 497.783 1198.6 496.949 1197.46H496.977Z" fill="#24318E"/>
<path d="M484.485 1201.14C479.45 1194.24 470.909 1192.29 463.76 1197.49C462.591 1198.33 461.478 1196.43 462.619 1195.59C470.826 1189.61 480.702 1192.21 486.405 1200.03C487.24 1201.17 485.292 1202.28 484.458 1201.14H484.485Z" fill="#24318E"/>
<path d="M471.577 1204.79C466.542 1197.89 458.001 1195.94 450.851 1201.14C449.683 1201.98 448.57 1200.08 449.71 1199.25C457.917 1193.27 467.793 1195.86 473.497 1203.68C474.331 1204.82 472.384 1205.93 471.549 1204.79H471.577Z" fill="#24318E"/>
<path d="M729.357 1103.37L777.82 1181.44L822.387 1176.16L794.122 1099.94L729.357 1103.37Z" fill="#FD945C"/>
<path d="M828.23 1173.32C827.562 1179.84 824.224 1209.91 822.554 1224.71C821.998 1229.71 821.636 1232.99 821.636 1232.99H676.555C677.167 1229.96 677.862 1227.2 678.697 1224.71C683.899 1208.77 693.136 1203.79 703.485 1203.14C715.447 1202.41 759.765 1188.61 759.765 1188.61C759.765 1188.61 758.874 1175.32 767.053 1172.67C775.205 1170.02 793.232 1178.03 793.232 1178.03L814.932 1175.51C814.932 1175.51 829.12 1164.61 828.257 1173.32H828.23Z" fill="white"/>
<path d="M822.554 1224.71C821.998 1229.71 821.636 1232.99 821.636 1232.99H676.555C677.167 1229.96 677.862 1227.2 678.697 1224.71H822.582H822.554Z" fill="#24318E"/>
<path d="M825.309 1192.64C814.348 1198.65 808.032 1210.69 813.513 1222.44C814.097 1223.71 812.178 1224.82 811.565 1223.54C805.556 1210.69 812.066 1197.43 824.168 1190.78C825.42 1190.07 826.56 1191.97 825.309 1192.67V1192.64Z" fill="#24318E"/>
<path d="M764.856 1197.46C759.82 1190.56 751.279 1188.61 744.13 1193.81C742.961 1194.65 741.848 1192.75 742.989 1191.91C751.196 1185.93 761.072 1188.53 766.775 1196.35C767.61 1197.49 765.662 1198.6 764.828 1197.46H764.856Z" fill="#24318E"/>
<path d="M752.364 1201.14C747.329 1194.24 738.788 1192.29 731.638 1197.49C730.47 1198.33 729.357 1196.43 730.498 1195.59C738.705 1189.61 748.581 1192.21 754.284 1200.03C755.119 1201.17 753.171 1202.28 752.337 1201.14H752.364Z" fill="#24318E"/>
<path d="M739.456 1204.79C734.42 1197.89 725.88 1195.94 718.73 1201.14C717.562 1201.98 716.449 1200.08 717.589 1199.25C725.796 1193.27 735.672 1195.86 741.375 1203.68C742.21 1204.82 740.263 1205.93 739.428 1204.79H739.456Z" fill="#24318E"/>
<path d="M1024.83 804.467C1024.83 804.467 1037.13 864.053 970.863 902.776C914.833 935.518 731.193 904.724 731.193 904.724L817.575 1123.8L718.841 1128.89C718.841 1128.89 542.463 855.827 547.804 799.082C555.232 720.121 725.88 750.455 863.144 777.894C945.88 794.454 1024.86 804.467 1024.86 804.467H1024.83Z" fill="#24318E"/>
<path d="M569.504 876.365C595.96 923.855 622.528 971.265 648.985 1018.75C650.015 1020.59 652.88 1018.94 651.879 1017.1C625.422 969.614 598.854 922.205 572.397 874.714C571.367 872.874 568.502 874.525 569.504 876.365Z" fill="#275CC7"/>
<path d="M549.584 794.644C567.946 803.032 589.45 802.085 606.894 792.046C608.535 791.099 607.033 788.582 605.391 789.529C588.894 799.027 568.446 800.056 551.087 792.127C549.362 791.342 547.832 793.832 549.584 794.644Z" fill="#275CC7"/>
<path d="M787.473 1098.72C786.889 1098.72 786.361 1098.39 786.11 1097.85L780.88 1086.3C780.546 1085.57 780.88 1084.7 781.659 1084.38C782.41 1084.05 783.3 1084.38 783.634 1085.13L788.864 1096.69C789.198 1097.42 788.864 1098.28 788.085 1098.61C787.891 1098.69 787.696 1098.74 787.473 1098.74V1098.72ZM777.013 1075.58C776.429 1075.58 775.9 1075.26 775.65 1074.71L770.448 1063.16C770.114 1062.43 770.448 1061.56 771.226 1061.24C771.978 1060.91 772.868 1061.24 773.202 1062L778.404 1073.55C778.738 1074.28 778.404 1075.15 777.625 1075.47C777.43 1075.55 777.236 1075.61 777.013 1075.61V1075.58ZM766.58 1052.47C765.996 1052.47 765.468 1052.15 765.217 1051.61L760.015 1040.05C759.681 1039.32 760.015 1038.45 760.794 1038.13C761.545 1037.81 762.435 1038.13 762.769 1038.89L767.971 1050.44C768.305 1051.17 767.971 1052.04 767.193 1052.36C766.998 1052.44 766.803 1052.5 766.58 1052.5V1052.47ZM756.176 1029.34C755.592 1029.34 755.063 1029.01 754.813 1028.47L749.61 1016.89C749.277 1016.16 749.61 1015.29 750.389 1014.97C751.14 1014.64 752.031 1014.97 752.365 1015.72L757.567 1027.31C757.901 1028.04 757.567 1028.9 756.788 1029.23C756.593 1029.31 756.398 1029.34 756.204 1029.34H756.176ZM745.799 1006.17C745.215 1006.17 744.686 1005.85 744.436 1005.31C742.683 1001.41 740.958 997.54 739.261 993.724C738.927 992.994 739.261 992.128 740.04 991.803C740.791 991.478 741.682 991.803 742.015 992.561C743.712 996.376 745.437 1000.22 747.19 1004.14C747.524 1004.87 747.19 1005.74 746.411 1006.06C746.216 1006.14 746.022 1006.17 745.827 1006.17H745.799ZM735.478 983.036C734.894 983.036 734.337 982.711 734.115 982.17C732.334 978.165 730.609 974.295 728.968 970.588C728.634 969.857 728.968 968.991 729.747 968.667C730.498 968.342 731.388 968.667 731.722 969.424C733.363 973.132 735.088 977.028 736.869 981.006C737.203 981.737 736.869 982.603 736.09 982.927C735.895 983.008 735.7 983.036 735.506 983.036H735.478ZM725.212 959.845C724.628 959.845 724.072 959.52 723.849 958.952C722.569 956.03 721.345 953.27 720.232 950.699C719.759 949.616 719.259 948.48 718.758 947.343C718.424 946.613 718.758 945.747 719.537 945.422C720.288 945.097 721.178 945.422 721.512 946.18C722.013 947.316 722.514 948.453 722.987 949.535C724.099 952.106 725.323 954.866 726.603 957.789C726.937 958.519 726.603 959.385 725.824 959.71C725.629 959.791 725.435 959.818 725.24 959.818L725.212 959.845ZM714.947 936.655C714.362 936.655 713.834 936.33 713.583 935.789L712.331 933.029C711.052 930.16 709.716 927.238 708.381 924.234C708.047 923.504 708.381 922.638 709.16 922.313C709.911 921.988 710.801 922.313 711.135 923.071C712.471 926.074 713.806 929.024 715.086 931.865L716.338 934.625C716.671 935.356 716.338 936.222 715.559 936.547C715.364 936.628 715.169 936.682 714.974 936.682L714.947 936.655ZM704.598 913.518C704.013 913.518 703.457 913.194 703.234 912.625C701.398 908.458 699.757 904.643 698.171 900.99C697.865 900.259 698.227 899.393 698.978 899.095C699.757 898.798 700.619 899.15 700.925 899.88C702.483 903.533 704.125 907.322 705.961 911.489C706.295 912.22 705.961 913.085 705.182 913.41C704.987 913.491 704.792 913.518 704.598 913.518ZM874.828 896.092C870.572 896.038 866.204 895.929 861.836 895.794C861.002 895.767 860.362 895.091 860.39 894.279C860.417 893.467 861.113 892.818 861.947 892.872C866.287 893.034 870.655 893.115 874.884 893.169C875.718 893.169 876.358 893.846 876.358 894.631C876.358 895.415 875.691 896.065 874.856 896.065L874.828 896.092ZM887.792 896.065C886.985 896.065 886.318 895.415 886.29 894.631C886.29 893.819 886.93 893.169 887.764 893.169C892.16 893.115 896.5 893.007 900.673 892.818C901.48 892.818 902.203 893.413 902.231 894.198C902.259 895.009 901.619 895.686 900.812 895.713C896.611 895.902 892.243 896.011 887.82 896.065H887.792ZM848.9 895.172C848.9 895.172 848.844 895.172 848.816 895.172C844.476 894.928 840.137 894.631 835.852 894.306C835.018 894.252 834.406 893.548 834.489 892.736C834.545 891.925 835.296 891.329 836.103 891.41C840.359 891.735 844.699 892.033 849.011 892.276C849.846 892.33 850.458 893.007 850.402 893.819C850.347 894.604 849.707 895.199 848.9 895.199V895.172ZM913.665 894.955C912.886 894.955 912.246 894.387 912.19 893.629C912.135 892.818 912.747 892.141 913.554 892.06C914.639 891.979 915.724 891.898 916.781 891.789C920.008 891.519 923.179 891.086 926.212 890.517C927.018 890.355 927.797 890.896 927.964 891.681C928.131 892.466 927.575 893.223 926.768 893.386C923.624 893.981 920.342 894.414 917.031 894.712C915.946 894.793 914.861 894.901 913.776 894.982C913.748 894.982 913.693 894.982 913.665 894.982V894.955ZM823.083 893.142C823.083 893.142 822.972 893.142 822.916 893.142C818.548 892.709 814.208 892.222 810.008 891.708C809.201 891.6 808.617 890.869 808.7 890.084C808.811 889.3 809.562 888.731 810.369 888.813C814.542 889.327 818.882 889.814 823.222 890.247C824.057 890.328 824.641 891.032 824.557 891.843C824.474 892.601 823.834 893.142 823.083 893.142ZM694.666 890.22C694.082 890.22 693.497 889.868 693.275 889.3C691.578 885.187 690.02 881.209 688.601 877.502C688.323 876.744 688.712 875.905 689.491 875.634C690.27 875.364 691.133 875.743 691.411 876.5C692.83 880.181 694.388 884.131 696.057 888.217C696.363 888.975 696.001 889.814 695.222 890.112C695.027 890.193 694.861 890.22 694.666 890.22ZM938.981 890.112C938.369 890.112 937.785 889.733 937.562 889.137C937.284 888.38 937.701 887.541 938.48 887.27C942.514 885.89 946.381 884.158 950.026 882.183C950.749 881.777 951.667 882.048 952.056 882.724C952.474 883.428 952.196 884.321 951.472 884.7C947.689 886.756 943.655 888.542 939.482 890.003C939.315 890.057 939.148 890.084 938.981 890.084V890.112ZM797.349 889.976C797.349 889.976 797.21 889.976 797.127 889.976C792.676 889.3 788.336 888.596 784.302 887.839C783.495 887.676 782.966 886.918 783.106 886.134C783.272 885.349 784.024 884.835 784.858 884.97C788.864 885.701 793.149 886.431 797.6 887.081C798.407 887.216 798.963 887.947 798.852 888.731C798.74 889.462 798.101 889.976 797.377 889.976H797.349ZM771.894 885.214C771.894 885.214 771.672 885.214 771.56 885.187C766.859 884.104 762.63 882.968 758.958 881.804C758.179 881.561 757.734 880.749 757.984 879.964C758.234 879.206 759.069 878.773 759.876 879.017C763.465 880.153 767.638 881.263 772.256 882.345C773.063 882.535 773.563 883.319 773.369 884.104C773.202 884.781 772.59 885.214 771.922 885.214H771.894ZM961.404 877.826C960.959 877.826 960.542 877.637 960.236 877.285C959.707 876.663 959.79 875.743 960.43 875.229C963.657 872.658 966.69 869.762 969.5 866.596C970.028 866.001 970.974 865.92 971.614 866.461C972.226 866.975 972.309 867.895 971.753 868.518C968.86 871.792 965.66 874.796 962.322 877.474C962.044 877.691 961.71 877.799 961.376 877.799L961.404 877.826ZM747.468 876.96C747.218 876.96 746.94 876.906 746.689 876.744C744.575 875.499 743.1 874.281 742.182 872.983C741.07 871.413 739.873 869.275 738.427 866.245C738.093 865.514 738.427 864.648 739.15 864.323C739.901 863.972 740.791 864.323 741.125 865.027C742.461 867.841 743.601 869.898 744.603 871.305C745.27 872.225 746.467 873.226 748.192 874.227C748.887 874.633 749.137 875.526 748.692 876.23C748.414 876.69 747.913 876.933 747.413 876.933L747.468 876.96ZM685.624 866.569C685.012 866.569 684.428 866.191 684.206 865.595C682.731 861.347 681.396 857.288 680.255 853.526C680.033 852.769 680.478 851.957 681.257 851.713C682.036 851.497 682.87 851.93 683.121 852.688C684.233 856.422 685.569 860.427 687.043 864.648C687.321 865.406 686.904 866.245 686.097 866.488C685.93 866.542 685.763 866.569 685.624 866.569ZM978.346 858.884C978.068 858.884 977.79 858.803 977.567 858.668C976.872 858.235 976.649 857.342 977.094 856.665C979.292 853.229 981.323 849.549 983.076 845.706C983.41 844.975 984.3 844.651 985.051 844.975C985.802 845.3 986.136 846.166 985.802 846.897C983.966 850.847 981.907 854.663 979.626 858.208C979.348 858.641 978.847 858.884 978.346 858.884ZM734.727 855.502C734.142 855.502 733.586 855.177 733.336 854.609C731.75 850.902 730.081 846.951 728.272 843.027C727.939 842.297 728.272 841.431 729.023 841.106C729.775 840.781 730.665 841.106 730.999 841.837C732.835 845.787 734.532 849.765 736.09 853.499C736.396 854.23 736.034 855.096 735.283 855.394C735.088 855.475 734.894 855.502 734.727 855.502ZM678.447 842.351C677.751 842.351 677.139 841.891 677 841.214C675.943 836.587 675.247 832.338 674.886 828.604C674.802 827.792 675.414 827.089 676.249 827.035C677.084 826.954 677.807 827.549 677.863 828.361C678.196 831.987 678.892 836.1 679.921 840.619C680.088 841.404 679.587 842.188 678.781 842.351C678.669 842.351 678.558 842.378 678.447 842.378V842.351ZM988.946 835.937C988.807 835.937 988.668 835.937 988.501 835.883C987.722 835.64 987.277 834.828 987.499 834.07C989.725 826.954 990.309 822.029 990.337 822.001C990.42 821.217 991.171 820.621 992.006 820.73C992.813 820.811 993.425 821.541 993.313 822.353C993.313 822.57 992.674 827.549 990.365 834.936C990.17 835.559 989.586 835.964 988.946 835.964V835.937ZM723.96 832.555C723.432 832.555 722.903 832.284 722.653 831.797C720.399 827.738 718.202 824.302 715.92 821.271C715.42 820.621 715.586 819.701 716.254 819.241C716.922 818.781 717.868 818.917 718.341 819.566C720.705 822.705 722.987 826.25 725.296 830.444C725.685 831.148 725.407 832.041 724.684 832.42C724.461 832.528 724.211 832.582 723.96 832.582V832.555ZM676.805 817.374C676.805 817.374 676.583 817.374 676.472 817.347C675.665 817.185 675.164 816.4 675.331 815.615C676.555 810.23 679.337 806.604 683.566 804.845C684.317 804.521 685.207 804.845 685.541 805.603C685.875 806.334 685.541 807.2 684.762 807.524C681.423 808.932 679.309 811.773 678.28 816.265C678.113 816.941 677.501 817.401 676.833 817.401L676.805 817.374ZM708.298 812.639C707.964 812.639 707.63 812.531 707.352 812.314C703.902 809.581 700.258 807.795 696.53 806.956C695.723 806.767 695.222 806.009 695.417 805.224C695.612 804.44 696.391 803.953 697.197 804.142C701.37 805.062 705.404 807.064 709.216 810.068C709.856 810.582 709.967 811.502 709.438 812.125C709.132 812.476 708.715 812.666 708.27 812.666L708.298 812.639Z" fill="#275CC7"/>
<path d="M702.928 1111.16L714.807 1140.69L826.226 1137.17L819.216 1107.32L702.928 1111.16Z" fill="#275CC7"/>
</g>
<defs>
<clipPath id="clip0_269_44">
<rect width="1391" height="1353" fill="white"/>
</clipPath>
</defs>
</svg>
