<svg width="11" height="18" viewBox="0 0 11 18" fill="none" xmlns="http://www.w3.org/2000/svg">
<path d="M10.5359 7.9346L2.6918 0.440774C2.54552 0.301032 2.37187 0.190182 2.18075 0.114554C1.98963 0.0389258 1.78479 0 1.57793 0C1.16014 0 0.759474 0.158551 0.464057 0.440774C0.317782 0.580517 0.201749 0.746416 0.122586 0.928998C0.0434221 1.11158 0.00267811 1.30727 0.00267811 1.5049C0.00267811 1.90402 0.168641 2.2868 0.464057 2.56902L7.21002 8.99872L0.464057 15.4284C0.317013 15.5678 0.200302 15.7335 0.120654 15.9162C0.0410068 16.0988 0 16.2947 0 16.4925C0 16.6904 0.0410068 16.8863 0.120654 17.0689C0.200302 17.2516 0.317013 17.4173 0.464057 17.5567C0.6099 17.6971 0.783414 17.8086 0.974591 17.8847C1.16577 17.9608 1.37082 18 1.57793 18C1.78503 18 1.99009 17.9608 2.18126 17.8847C2.37244 17.8086 2.54595 17.6971 2.6918 17.5567L10.5359 10.0628C10.683 9.92352 10.7997 9.75775 10.8793 9.57511C10.959 9.39247 11 9.19658 11 8.99872C11 8.80087 10.959 8.60497 10.8793 8.42233C10.7997 8.23969 10.683 8.07393 10.5359 7.9346Z" fill="white"/>
</svg>
