<svg width="20" height="20" viewBox="0 0 20 20" fill="none" xmlns="http://www.w3.org/2000/svg">
<path fill-rule="evenodd" clip-rule="evenodd" d="M18.75 0C19.0815 6.98627e-09 19.3995 0.131696 19.6339 0.366116C19.8683 0.600537 20 0.918479 20 1.25C20 1.58152 19.8683 1.89946 19.6339 2.13388C19.3995 2.3683 19.0815 2.5 18.75 2.5L1.25 2.5C0.91848 2.5 0.600538 2.3683 0.366118 2.13388C0.131697 1.89946 4.76837e-07 1.58152 4.76837e-07 1.25C4.76837e-07 0.918479 0.131697 0.600537 0.366118 0.366116C0.600538 0.131696 0.91848 6.98628e-09 1.25 0L18.75 0ZM13.3333 7.08333C13.3333 6.75181 13.2016 6.43387 12.9672 6.19945C12.7328 5.96503 12.4149 5.83333 12.0833 5.83333L1.25 5.83333C0.91848 5.83333 0.600538 5.96503 0.366118 6.19945C0.131697 6.43387 4.76837e-07 6.75181 4.76837e-07 7.08333C4.76837e-07 7.41485 0.131697 7.7328 0.366118 7.96722C0.600538 8.20164 0.91848 8.33333 1.25 8.33333L12.0833 8.33333C12.4149 8.33333 12.7328 8.20164 12.9672 7.96722C13.2016 7.7328 13.3333 7.41485 13.3333 7.08333ZM18.75 11.6667C19.0815 11.6667 19.3995 11.7984 19.6339 12.0328C19.8683 12.2672 20 12.5851 20 12.9167C20 13.2482 19.8683 13.5661 19.6339 13.8005C19.3995 14.035 19.0815 14.1667 18.75 14.1667L1.25 14.1667C0.91848 14.1667 0.600538 14.035 0.366118 13.8005C0.131697 13.5661 4.76837e-07 13.2482 4.76837e-07 12.9167C4.76837e-07 12.5851 0.131697 12.2672 0.366118 12.0328C0.600538 11.7984 0.91848 11.6667 1.25 11.6667L18.75 11.6667ZM12.0833 17.5C12.4149 17.5 12.7328 17.6317 12.9672 17.8661C13.2016 18.1005 13.3333 18.4185 13.3333 18.75C13.3333 19.0815 13.2016 19.3995 12.9672 19.6339C12.7328 19.8683 12.4149 20 12.0833 20H1.25C0.91848 20 0.600538 19.8683 0.366118 19.6339C0.131697 19.3995 4.76837e-07 19.0815 4.76837e-07 18.75C4.76837e-07 18.4185 0.131697 18.1005 0.366118 17.8661C0.600538 17.6317 0.91848 17.5 1.25 17.5H12.0833Z" fill="black"/>
</svg>
