<svg width="20" height="20" viewBox="0 0 20 20" fill="none" xmlns="http://www.w3.org/2000/svg">
<path fill-rule="evenodd" clip-rule="evenodd" d="M1.25 0C0.918479 6.98627e-09 0.600537 0.131696 0.366116 0.366116C0.131696 0.600537 0 0.918479 0 1.25C0 1.58152 0.131696 1.89946 0.366116 2.13388C0.600537 2.3683 0.918479 2.5 1.25 2.5H18.75C19.0815 2.5 19.3995 2.3683 19.6339 2.13388C19.8683 1.89946 20 1.58152 20 1.25C20 0.918479 19.8683 0.600537 19.6339 0.366116C19.3995 0.131696 19.0815 6.98628e-09 18.75 0H1.25ZM6.66667 7.08333C6.66667 6.75181 6.79836 6.43387 7.03278 6.19945C7.2672 5.96503 7.58515 5.83333 7.91667 5.83333H18.75C19.0815 5.83333 19.3995 5.96503 19.6339 6.19945C19.8683 6.43387 20 6.75181 20 7.08333C20 7.41485 19.8683 7.7328 19.6339 7.96722C19.3995 8.20164 19.0815 8.33333 18.75 8.33333H7.91667C7.58515 8.33333 7.2672 8.20164 7.03278 7.96722C6.79836 7.7328 6.66667 7.41485 6.66667 7.08333ZM1.25 11.6667C0.918479 11.6667 0.600537 11.7984 0.366116 12.0328C0.131696 12.2672 0 12.5851 0 12.9167C0 13.2482 0.131696 13.5661 0.366116 13.8005C0.600537 14.035 0.918479 14.1667 1.25 14.1667H18.75C19.0815 14.1667 19.3995 14.035 19.6339 13.8005C19.8683 13.5661 20 13.2482 20 12.9167C20 12.5851 19.8683 12.2672 19.6339 12.0328C19.3995 11.7984 19.0815 11.6667 18.75 11.6667H1.25ZM7.91667 17.5C7.58515 17.5 7.2672 17.6317 7.03278 17.8661C6.79836 18.1005 6.66667 18.4185 6.66667 18.75C6.66667 19.0815 6.79836 19.3995 7.03278 19.6339C7.2672 19.8683 7.58515 20 7.91667 20H18.75C19.0815 20 19.3995 19.8683 19.6339 19.6339C19.8683 19.3995 20 19.0815 20 18.75C20 18.4185 19.8683 18.1005 19.6339 17.8661C19.3995 17.6317 19.0815 17.5 18.75 17.5H7.91667Z" fill="black"/>
</svg>
