<svg width="21" height="20" viewBox="0 0 21 20" fill="none" xmlns="http://www.w3.org/2000/svg">
<path d="M20 17.1504H12.4M1 17.1504H8.6M10.5 15.2504V12.4004" stroke="black" stroke-width="1.5" stroke-linecap="round"/>
<path d="M10.4996 19.05C11.549 19.05 12.3996 18.1993 12.3996 17.15C12.3996 16.1007 11.549 15.25 10.4996 15.25C9.45027 15.25 8.59961 16.1007 8.59961 17.15C8.59961 18.1993 9.45027 19.05 10.4996 19.05Z" stroke="black" stroke-width="1.5"/>
<path d="M12.4 12.4H3.85C3.47573 12.4 3.10513 12.3263 2.75935 12.1831C2.41357 12.0398 2.09939 11.8299 1.83475 11.5653C1.5701 11.3006 1.36017 10.9864 1.21694 10.6406C1.07372 10.2949 1 9.92427 1 9.55C1 9.17573 1.07372 8.80513 1.21694 8.45935C1.36017 8.11357 1.5701 7.79939 1.83475 7.53475C2.09939 7.2701 2.41357 7.06017 2.75935 6.91694C3.10513 6.77372 3.47573 6.7 3.85 6.7M3.85 6.7H17.15M3.85 6.7C3.09413 6.7 2.36922 6.39973 1.83475 5.86525C1.30027 5.33078 1 4.60587 1 3.85C1 3.09413 1.30027 2.36922 1.83475 1.83475C2.36922 1.30027 3.09413 1 3.85 1H6.7M17.15 6.7C17.5243 6.7 17.8949 6.77372 18.2406 6.91694C18.5864 7.06017 18.9006 7.2701 19.1653 7.53475C19.4299 7.79939 19.6398 8.11357 19.7831 8.45935C19.9263 8.80513 20 9.17573 20 9.55C20 9.92427 19.9263 10.2949 19.7831 10.6406C19.6398 10.9864 19.4299 11.3006 19.1653 11.5653C18.9006 11.8299 18.5864 12.0398 18.2406 12.1831C17.8949 12.3263 17.5243 12.4 17.15 12.4H16.2M17.15 6.7C17.9059 6.7 18.6308 6.39973 19.1653 5.86525C19.6997 5.33078 20 4.60587 20 3.85C20 3.09413 19.6997 2.36922 19.1653 1.83475C18.6308 1.30027 17.9059 1 17.15 1H10.5M11.45 3.85H17.15M11.45 9.55H17.15" stroke="black" stroke-width="1.5" stroke-linecap="round"/>
<path d="M5.24961 3.8499C5.24961 4.09843 5.04814 4.2999 4.79961 4.2999C4.55108 4.2999 4.34961 4.09843 4.34961 3.8499C4.34961 3.60137 4.55108 3.3999 4.79961 3.3999C5.04814 3.3999 5.24961 3.60137 5.24961 3.8499Z" fill="black" stroke="black"/>
<path d="M5.24961 9.5501C5.24961 9.79863 5.04814 10.0001 4.79961 10.0001C4.55108 10.0001 4.34961 9.79863 4.34961 9.5501C4.34961 9.30157 4.55108 9.1001 4.79961 9.1001C5.04814 9.1001 5.24961 9.30157 5.24961 9.5501Z" fill="black" stroke="black"/>
</svg>
