<svg width="15" height="20" viewBox="0 0 15 20" fill="none" xmlns="http://www.w3.org/2000/svg">
<path d="M3 0C1.34531 0 0 1.28125 0 2.85714V17.1429C0 18.7188 1.34531 20 3 20H9C12.3141 20 15 17.442 15 14.2857C15 12.2098 13.8375 10.3884 12.0938 9.38839C12.9703 8.39286 13.5 7.11161 13.5 5.71429C13.5 2.55804 10.8141 0 7.5 0H3ZM7.5 8.57143H3V2.85714H7.5C9.15469 2.85714 10.5 4.13839 10.5 5.71429C10.5 7.29018 9.15469 8.57143 7.5 8.57143ZM3 11.4286H9C10.6547 11.4286 12 12.7098 12 14.2857C12 15.8616 10.6547 17.1429 9 17.1429H3V11.4286Z" fill="black"/>
</svg>
