<svg width="22" height="22" viewBox="0 0 22 22" fill="none" xmlns="http://www.w3.org/2000/svg">
<path fill-rule="evenodd" clip-rule="evenodd" d="M7.04411 0.716425C8.42019 0.192251 9.88794 -0.0486584 11.3594 0.00813975C14.112 0.121494 16.7213 1.26577 18.6693 3.21381C20.6174 5.16184 21.7617 7.77117 21.875 10.5238C21.9318 11.9952 21.6909 13.463 21.1667 14.839C20.6425 16.2151 19.8459 17.4712 18.8245 18.5319C17.8032 19.5927 16.5782 20.4363 15.2229 21.0121C13.8676 21.588 12.41 21.8842 10.9375 21.8831C10.3159 21.8831 9.71976 21.6362 9.28022 21.1967C8.84068 20.7571 8.59375 20.161 8.59375 19.5394V16.6019C8.59446 16.2411 8.51185 15.885 8.35237 15.5613C8.19288 15.2377 7.96082 14.9552 7.67427 14.7359C7.38771 14.5167 7.05441 14.3665 6.70031 14.2972C6.34622 14.2279 5.9809 14.2412 5.63282 14.3363L4.75782 14.5785C4.19912 14.7311 3.61276 14.7527 3.04432 14.6418C2.47589 14.5309 1.94071 14.2903 1.48039 13.9388C1.02007 13.5873 0.64703 13.1344 0.390273 12.6153C0.133516 12.0962 -3.57144e-05 11.5248 3.0286e-06 10.9456C-0.00109274 9.47311 0.295167 8.01552 0.87102 6.66025C1.44687 5.30498 2.29046 4.07995 3.35121 3.0586C4.41196 2.03724 5.66803 1.2406 7.04411 0.716425ZM14.6125 19.5732C15.7741 19.0776 16.823 18.3511 17.6953 17.4378V17.4456C18.5753 16.5389 19.2613 15.4623 19.7113 14.2816C20.1612 13.1009 20.3658 11.8409 20.3125 10.5785C20.1901 8.22909 19.2018 6.00833 17.5383 4.34482C15.8748 2.68132 13.6541 1.693 11.3047 1.57064C10.043 1.52119 8.78432 1.72711 7.60417 2.17605C6.42402 2.625 5.34672 3.30771 4.4369 4.18324C3.52708 5.05876 2.8035 6.10905 2.30957 7.2711C1.81564 8.43314 1.56153 9.68298 1.5625 10.9456C1.56177 11.284 1.63897 11.618 1.78813 11.9216C1.93728 12.2253 2.15438 12.4906 2.42259 12.6969C2.6908 12.9031 3.00291 13.0448 3.33472 13.111C3.66653 13.1772 4.00913 13.166 4.33594 13.0785L5.21094 12.8363C5.5494 12.7429 5.8989 12.6956 6.25 12.6956C7.28601 12.6956 8.27958 13.1072 9.01214 13.8398C9.7447 14.5723 10.1563 15.5659 10.1563 16.6019V19.5394C10.1563 19.7466 10.2386 19.9453 10.3851 20.0918C10.5316 20.2383 10.7303 20.3206 10.9375 20.3206C12.2005 20.3231 13.4508 20.0688 14.6125 19.5732ZM12.5 5.47681C12.5 6.33975 11.8004 7.03931 10.9375 7.03931C10.0746 7.03931 9.375 6.33975 9.375 5.47681C9.375 4.61386 10.0746 3.91431 10.9375 3.91431C11.8004 3.91431 12.5 4.61386 12.5 5.47681ZM7.8125 7.82056C7.8125 8.6835 7.11295 9.38306 6.25 9.38306C5.38705 9.38306 4.6875 8.6835 4.6875 7.82056C4.6875 6.95761 5.38705 6.25806 6.25 6.25806C7.11295 6.25806 7.8125 6.95761 7.8125 7.82056ZM15.625 9.38306C16.4879 9.38306 17.1875 8.6835 17.1875 7.82056C17.1875 6.95761 16.4879 6.25806 15.625 6.25806C14.7621 6.25806 14.0625 6.95761 14.0625 7.82056C14.0625 8.6835 14.7621 9.38306 15.625 9.38306ZM17.9688 12.5081C17.9688 13.371 17.2692 14.0706 16.4063 14.0706C15.5433 14.0706 14.8438 13.371 14.8438 12.5081C14.8438 11.6451 15.5433 10.9456 16.4063 10.9456C17.2692 10.9456 17.9688 11.6451 17.9688 12.5081ZM13.2813 17.9768C14.1442 17.9768 14.8438 17.2773 14.8438 16.4143C14.8438 15.5514 14.1442 14.8518 13.2813 14.8518C12.4183 14.8518 11.7188 15.5514 11.7188 16.4143C11.7188 17.2773 12.4183 17.9768 13.2813 17.9768Z" fill="black"/>
</svg>
