<svg width="17" height="20" viewBox="0 0 17 20" fill="none" xmlns="http://www.w3.org/2000/svg">
<path d="M9.80617 0.879516C9.58921 0.348235 9.07117 0 8.5 0C7.92883 0 7.41079 0.348235 7.19383 0.879516L1.88061 13.7374L0.109533 18.0234C-0.19155 18.7511 0.149382 19.586 0.871095 19.8896C1.59281 20.1931 2.42079 19.8494 2.72187 19.1217L4.12987 15.7152H12.8701L14.2781 19.1217C14.5792 19.8494 15.4072 20.1931 16.1289 19.8896C16.8506 19.586 17.1915 18.7511 16.8905 18.0234L15.1194 13.7374L9.80617 0.879516ZM11.6879 12.8579H5.31207L8.5 5.14316L11.6879 12.8579Z" fill="black"/>
</svg>
