<svg width="15" height="20" viewBox="0 0 15 20" fill="none" xmlns="http://www.w3.org/2000/svg">
<path d="M3.75 1.25C3.75 0.918479 3.6183 0.600537 3.38388 0.366117C3.14946 0.131696 2.83152 0 2.5 0C2.16848 0 1.85054 0.131696 1.61612 0.366117C1.3817 0.600537 1.25 0.918479 1.25 1.25V9.375C1.25 11.0326 1.90848 12.6223 3.08058 13.7944C4.25269 14.9665 5.8424 15.625 7.5 15.625C9.1576 15.625 10.7473 14.9665 11.9194 13.7944C13.0915 12.6223 13.75 11.0326 13.75 9.375V1.25C13.75 0.918479 13.6183 0.600537 13.3839 0.366117C13.1495 0.131696 12.8315 0 12.5 0C12.1685 0 11.8505 0.131696 11.6161 0.366117C11.3817 0.600537 11.25 0.918479 11.25 1.25V9.375C11.25 10.3696 10.8549 11.3234 10.1517 12.0267C9.44839 12.7299 8.49456 13.125 7.5 13.125C6.50544 13.125 5.55161 12.7299 4.84835 12.0267C4.14509 11.3234 3.75 10.3696 3.75 9.375V1.25ZM1.25 17.5C0.918479 17.5 0.600537 17.6317 0.366117 17.8661C0.131696 18.1005 0 18.4185 0 18.75C0 19.0815 0.131696 19.3995 0.366117 19.6339C0.600537 19.8683 0.918479 20 1.25 20H13.75C14.0815 20 14.3995 19.8683 14.6339 19.6339C14.8683 19.3995 15 19.0815 15 18.75C15 18.4185 14.8683 18.1005 14.6339 17.8661C14.3995 17.6317 14.0815 17.5 13.75 17.5H1.25Z" fill="black"/>
</svg>
