<svg width="21" height="22" viewBox="0 0 21 22" fill="none" xmlns="http://www.w3.org/2000/svg">
<path fill-rule="evenodd" clip-rule="evenodd" d="M21 10.5136C21 16.3161 16.299 21.0199 10.5 21.0199C4.70101 21.0199 0 16.3161 0 10.5136C0 4.71113 4.70101 0.00729847 10.5 0.00729847C16.299 0.00729847 21 4.71113 21 10.5136ZM11.625 11.7963C12.7244 11.351 13.5 10.2725 13.5 9.01269C13.5 7.35484 12.1569 6.01089 10.5 6.01089C8.84315 6.01089 7.5 7.35484 7.5 9.01269C7.5 10.2725 8.27556 11.351 9.375 11.7963V14.2658C9.375 14.8875 9.87868 15.3915 10.5 15.3915C11.1213 15.3915 11.625 14.8875 11.625 14.2658V11.7963Z" fill="#B3B3B3"/>
</svg>
